<svg width="100" height="80" viewBox="0 0 100 80" fill="none" xmlns="http://www.w3.org/2000/svg">
<path d="M74.75 57H59L59.375 55.5L74.875 37.375H63.875L64.413 35.125H78.875L78.5 36.875L63.1878 54.75H75.25L74.75 57Z" fill="#B57400" stroke="#B57400" stroke-width="0.25"/>
<path d="M92.5 57H76.75L77.125 55.5L92.625 37.375H81.625L82.163 35.125H96.625L96.25 36.875L80.9378 54.75H93L92.5 57Z" fill="#B57400" stroke="#B57400" stroke-width="0.25"/>
<path fill-rule="evenodd" clip-rule="evenodd" d="M39.375 57H42.25L45.75 50.125H53.5L54.5 57H57.375L54.25 35.125H51L39.375 57ZM53.375 47.875H46.875L52 37.75L53.375 47.875Z" fill="#B57400" stroke="#B57400" stroke-width="0.25"/>
<path d="M31.7501 38.3751C32.4554 37.2176 33.2338 36.9815 33.7501 37.125L31.2501 41.375C30.9592 40.7849 30.8819 39.6029 31.7501 38.3751Z" fill="#B57400"/>
<path d="M27.6251 45.3751C28.3968 44.0227 29.245 43.6902 29.8751 43.7501L27.3751 48.2501C27.0632 47.9619 26.8797 46.9193 27.6251 45.3751Z" fill="#B57400"/>
<path d="M23.7501 51.7501C24.5123 50.4632 25.4946 50.1389 26.1251 50.2501L23.5001 54.7501C23.3001 54.2089 23.032 52.9833 23.7501 51.7501Z" fill="#B57400"/>
<path d="M19.6251 58.0001C20.4428 56.8604 21.6541 56.5398 22.2501 56.7501L21.2501 59.1251L18.8751 61.0001C18.7847 60.3524 18.7048 59.1987 19.6251 58.0001Z" fill="#B57400"/>
<path d="M31.7501 38.3751C32.4554 37.2176 33.2338 36.9815 33.7501 37.125L31.2501 41.375C30.9592 40.7849 30.8819 39.6029 31.7501 38.3751Z" stroke="#B57400" stroke-width="0.25"/>
<path d="M27.6251 45.3751C28.3968 44.0227 29.245 43.6902 29.8751 43.7501L27.3751 48.2501C27.0632 47.9619 26.8797 46.9193 27.6251 45.3751Z" stroke="#B57400" stroke-width="0.25"/>
<path d="M23.7501 51.7501C24.5123 50.4632 25.4946 50.1389 26.1251 50.2501L23.5001 54.7501C23.3001 54.2089 23.032 52.9833 23.7501 51.7501Z" stroke="#B57400" stroke-width="0.25"/>
<path d="M19.6251 58.0001C20.4428 56.8604 21.6541 56.5398 22.2501 56.7501L21.2501 59.1251L18.8751 61.0001C18.7847 60.3524 18.7048 59.1987 19.6251 58.0001Z" stroke="#B57400" stroke-width="0.25"/>
<path d="M12.375 76.375C17.1859 76.1562 19.1104 74.7175 23.5001 70.375C30.3657 62.0066 33.7576 55.761 39.6251 44C44.2916 33.9616 47.0465 28.3771 52.2501 18.5C55.3403 13.9817 57.8511 11.3642 59.6251 11.5C61.399 11.6359 65.9483 14.2373 67.75 18.625C70.0031 21.2209 71.4154 22.5144 74.3751 23.75L74.7501 24.25L77.5001 25.5L78.3751 25.625C78.3751 25.625 83.712 28.0639 83.5001 27C83.2882 25.9362 79.9812 24.1306 79.875 23.5C79.7689 22.8695 79.7501 22.75 79.7501 22.75L76.2501 21.25H75.5001C71.3028 18.5716 69.1112 13.2721 64.5001 9.12503C62.0399 7.04759 59.2171 6.33565 57.0001 6.50003C54.783 6.66442 51.3503 9.09198 50.1251 12.75C48.1071 14.9794 45.7029 18.3779 42.2296 23.3751C41.8795 23.8788 41.5185 24.3987 41.146 24.9353C41.1031 24.9971 41.0601 25.0591 41.0169 25.1213C40.8877 25.3074 40.7571 25.4955 40.6251 25.6856C40.3004 26.1532 39.9672 26.6329 39.6251 27.125C39.5265 27.2927 39.4285 27.4593 39.3311 27.6251C39.0828 28.0477 38.741 28.5892 38.5001 29.0001C38.0273 29.8061 37.6655 30.4653 37.2181 31.2309C31.1832 41.5558 27.2663 48.4772 20.6251 59.5C20.4519 59.805 16.673 62.91 16 62.25C15.3271 61.5901 14.9152 61.3503 15.8751 57.875L22.8751 41.125C23.888 35.894 23.5734 33.4857 21.3751 30.125C17.6587 35.8534 14.894 37.7941 8.62509 38.75C8.68594 42.9725 4.59921 51.4515 2.62512 56.875C-0.610396 63.9943 0.462218 75.6173 12.375 76.375Z" fill="#B57400"/>
<path fill-rule="evenodd" clip-rule="evenodd" d="M41.146 24.9353C41.5185 24.3987 41.8795 23.8788 42.2296 23.3751C40.867 23.7724 40.6785 24.3725 40.6251 25.6856C40.7571 25.4955 40.8877 25.3074 41.0169 25.1213C41.0601 25.0591 41.1031 24.9971 41.146 24.9353Z" fill="#B57400"/>
<path d="M39.8751 26.6251L39.3311 26.3751C39.3433 26.0045 39.3751 25.7501 39.0001 25.6251C38.8251 25.5668 38.3147 25.6936 38.0001 26.1251C37.6402 26.6185 37.6251 27.3751 37.8751 27.5001C38.1251 27.6251 38.3452 27.4708 38.7501 27.3751L39.3311 27.6251L39.8751 26.6251Z" fill="#B57400"/>
<path d="M38.5001 29.0001L37.8751 28.6251C37.9347 28.3028 37.8751 28.0001 37.6251 27.8751C37.5054 27.8153 36.8497 27.9001 36.5001 28.3751C36.1189 28.8928 36.1795 29.6849 36.3751 29.7501C36.7501 29.8751 37.0424 29.6477 37.3751 29.5001L38.0001 29.8751L38.5001 29.0001Z" fill="#B57400"/>
<path d="M36.6251 30.8751C36.6302 30.6199 36.6251 30.3751 36.3751 30.2501C36.253 30.189 35.8078 30.1997 35.5001 30.6251C35.1772 31.0712 35.2471 31.8111 35.3751 31.8751C35.6251 32.0001 35.9 31.8637 36.2501 31.6251L36.7501 32.0001L37.2181 31.2309L36.6251 30.8751Z" fill="#B57400"/>
<path d="M11.5001 76.375C11.3751 77.1817 11.8328 78.2803 13.0001 78.6251C17.0318 79.8157 23.9868 77.0585 24.6251 73.0001C24.7644 72.114 24.0001 71.0001 23.3751 70.6251L22.3751 71.5001C22.3751 71.5001 23.2906 72.4072 23.0001 73.0001C21.6323 76.3434 14.9807 77.9741 14.0001 77.5001C13.0194 77.026 13.1251 76.375 13.1251 76.375H12.375H11.5001Z" fill="#B57400"/>
<path d="M12.375 76.375C17.1859 76.1562 19.1104 74.7175 23.5001 70.375C30.3657 62.0066 33.7576 55.761 39.6251 44C44.2916 33.9616 47.0465 28.3771 52.2501 18.5C55.3403 13.9817 57.8511 11.3642 59.6251 11.5C61.399 11.6359 65.9483 14.2373 67.75 18.625C70.0031 21.2209 71.4154 22.5144 74.3751 23.75L74.7501 24.25L77.5001 25.5L78.3751 25.625C78.3751 25.625 83.712 28.0639 83.5001 27C83.2882 25.9362 79.9812 24.1306 79.875 23.5C79.7689 22.8695 79.7501 22.75 79.7501 22.75L76.2501 21.25H75.5001C71.3028 18.5716 69.1112 13.2721 64.5001 9.12503C62.0399 7.04759 59.2171 6.33565 57.0001 6.50003C54.783 6.66442 51.3503 9.09198 50.1251 12.75C48.1071 14.9794 45.7029 18.3779 42.2296 23.3751M12.375 76.375C0.462218 75.6173 -0.610396 63.9943 2.62512 56.875C4.59921 51.4515 8.68594 42.9725 8.62509 38.75C14.894 37.7941 17.6587 35.8534 21.3751 30.125C23.5734 33.4857 23.888 35.894 22.8751 41.125L15.8751 57.875C14.9152 61.3503 15.3271 61.5901 16 62.25C16.673 62.91 20.4519 59.805 20.6251 59.5C27.2663 48.4772 31.1832 41.5558 37.2181 31.2309M12.375 76.375H13.1251M12.375 76.375H11.5001M39.6251 27.125C39.5265 27.2927 39.4285 27.4593 39.3311 27.6251M39.6251 27.125C39.9672 26.6329 40.3004 26.1532 40.6251 25.6856M39.6251 27.125C40.1063 26.4329 40.5699 25.7652 41.0169 25.1213M11.5001 76.375C11.3751 77.1817 11.8328 78.2803 13.0001 78.6251C17.0318 79.8157 23.9868 77.0585 24.6251 73.0001C24.7644 72.114 24.0001 71.0001 23.3751 70.6251L22.3751 71.5001C22.3751 71.5001 23.2906 72.4072 23.0001 73.0001C21.6323 76.3434 14.9807 77.9741 14.0001 77.5001C13.0194 77.026 13.1251 76.375 13.1251 76.375M11.5001 76.375H13.1251M42.2296 23.3751C40.867 23.7724 40.6785 24.3725 40.6251 25.6856M42.2296 23.3751C41.8795 23.8788 41.5185 24.3987 41.146 24.9353C41.1031 24.9971 41.0601 25.0591 41.0169 25.1213M40.6251 25.6856C40.7571 25.4955 40.8877 25.3074 41.0169 25.1213M39.3311 27.6251L38.7501 27.3751C38.3452 27.4708 38.1251 27.6251 37.8751 27.5001C37.6251 27.3751 37.6402 26.6185 38.0001 26.1251C38.3147 25.6936 38.8251 25.5668 39.0001 25.6251C39.3751 25.7501 39.3433 26.0045 39.3311 26.3751L39.8751 26.6251L39.3311 27.6251ZM39.3311 27.6251C39.0828 28.0477 38.741 28.5892 38.5001 29.0001M38.5001 29.0001L37.8751 28.6251C37.9347 28.3028 37.8751 28.0001 37.6251 27.8751C37.5054 27.8153 36.8497 27.9001 36.5001 28.3751C36.1189 28.8928 36.1795 29.6849 36.3751 29.7501C36.7501 29.8751 37.0424 29.6477 37.3751 29.5001L38.0001 29.8751L38.5001 29.0001ZM38.5001 29.0001C38.0273 29.8061 37.6655 30.4653 37.2181 31.2309M37.2501 31.2501L37.2181 31.2309M37.2181 31.2309L36.6251 30.8751C36.6302 30.6199 36.6251 30.3751 36.3751 30.2501C36.253 30.189 35.8078 30.1997 35.5001 30.6251C35.1772 31.0712 35.2471 31.8111 35.3751 31.8751C35.6251 32.0001 35.9 31.8637 36.2501 31.6251L36.7501 32.0001L37.2181 31.2309Z" stroke="#B57400" stroke-width="0.25"/>
<path d="M21.1252 28.1251C22.6252 29.5 18.7502 34.3751 14.7502 36.7502C13.0565 37.7558 10.3702 38.663 8.50018 38.6251C7.19588 38.5987 6.35289 37.8888 6.25016 37.3752C6.00015 36.1252 7.00017 32.6252 11.7502 29.7502C16.5001 26.8751 19.6252 26.7501 21.1252 28.1251Z" fill="#946400" stroke="#946400" stroke-width="0.25"/>
<path d="M7.375 36.7501C6.75003 35.625 7.87499 33.0001 12 30.2501C16.125 27.5001 19.125 27.5001 19.5 28.7501C19.875 30.0001 18.25 32.5001 15.125 34.7501C12 37.0001 7.99997 37.8751 7.375 36.7501Z" fill="#553300" stroke="#553300" stroke-width="0.25"/>
<path d="M48.5 25.75C49.1506 27.3759 48.1838 28.4659 47 28.625L48.5 25.75Z" fill="#B57400"/>
<path d="M45.375 35.375C45.9944 34.0588 46.0801 32.913 45.25 32.375L42.875 37.125C43.839 37.3349 44.889 36.4716 45.375 35.375Z" fill="#B57400"/>
<path d="M42.25 42.5C43.0621 40.7398 42.8044 39.4889 41.875 39.375L39.75 44C40.5055 44.3344 41.4571 44.0103 42.25 42.5Z" fill="#B57400"/>
<path d="M48.5 25.75C49.1506 27.3759 48.1838 28.4659 47 28.625L48.5 25.75Z" stroke="#B57400" stroke-width="0.25"/>
<path d="M45.375 35.375C45.9944 34.0588 46.0801 32.913 45.25 32.375L42.875 37.125C43.839 37.3349 44.889 36.4716 45.375 35.375Z" stroke="#B57400" stroke-width="0.25"/>
<path d="M42.25 42.5C43.0621 40.7398 42.8044 39.4889 41.875 39.375L39.75 44C40.5055 44.3344 41.4571 44.0103 42.25 42.5Z" stroke="#B57400" stroke-width="0.25"/>
<path fill-rule="evenodd" clip-rule="evenodd" d="M12.3751 22.625C13.2501 22.875 14.4353 22.2758 15.7501 20.375L18.5001 15.5L24.3751 16.25L22.1251 20.625C22.1251 20.625 20.9284 20.4619 20.0001 21.125C19.1251 21.75 18.6721 23.0396 19.3751 23.375C20.078 23.7104 21.5001 23.5 22.7501 21.25L27.1251 13.25L19.1251 12.125L15.0001 19.75C13.7501 19.75 13.2501 19.875 12.6251 20.5C12.0001 21.125 11.5096 22.3777 12.3751 22.625ZM25.0001 15.25L19.0001 14.5L19.6251 13.375L25.6251 14.125L25.0001 15.25Z" fill="#808080" stroke="#808080" stroke-width="0.25"/>
<path d="M41.7501 2.875L42.6251 1L38.0001 3.25L38.5001 11.25C37.7867 11.6752 37.2502 12.25 36.8751 12.75C36.5001 13.25 36.0002 14.875 37.2502 15C38.5002 15.125 39.3709 13.8733 39.5001 11.5L39.2501 4.125L41.7501 2.875Z" fill="#808080" stroke="#808080" stroke-width="0.25"/>
<path fill-rule="evenodd" clip-rule="evenodd" d="M71.25 3.375L72.75 11.375C73.375 13.375 73.9478 14.064 75 14.25C76.1017 14.2287 75.9313 12.6475 75.375 12.125C74.8187 11.6025 74.5878 11.4251 73.625 11.125L72.75 6.75L78.125 7.625C78.125 7.625 78.625 10.625 79.125 12.625C79.625 14.625 80.625 15.375 81.5 15.375C82.375 15.375 82.375 13.9648 81.75 13.25C81.125 12.5352 80.6988 12.2898 80 12.25L78.375 4.625L71.25 3.375ZM72.5 5.625L72.375 4.625L77.75 5.5L77.875 6.5L72.5 5.625Z" fill="#808080" stroke="#808080" stroke-width="0.25"/>
<path d="M92.625 13.625L91.75 11.75L96.25 14L95.75 22.375C96.5666 22.6081 97 23 97.375 23.625C97.75 24.25 98.125 26 97 26.125C95.875 26.25 94.9314 25.0827 94.75 22.5L95.25 15L92.625 13.625Z" fill="#808080" stroke="#808080" stroke-width="0.25"/>
</svg>
