<svg width="24" height="24" viewBox="0 0 24 24" fill="none" xmlns="http://www.w3.org/2000/svg">
<g clip-path="url(#clip0_2126_104)">
<path d="M12.8686 11.0868C12.0066 11.4558 11.0282 11.8742 9.76032 11.8742C9.22992 11.8732 8.70207 11.8004 8.19116 11.6579L9.06809 20.6613C9.09913 21.0376 9.27056 21.3885 9.54833 21.6442C9.82611 21.9 10.1899 22.0418 10.5675 22.0418C10.5675 22.0418 11.8109 22.1064 12.2258 22.1064C12.6723 22.1064 14.0113 22.0418 14.0113 22.0418C14.3888 22.0418 14.7525 21.8998 15.0302 21.644C15.308 21.3883 15.4793 21.0376 15.5104 20.6613L16.4496 10.7122C16.0299 10.5689 15.6063 10.4736 15.1287 10.4736C14.3028 10.4733 13.6374 10.7578 12.8686 11.0868Z" fill="currentColor"/>
<path d="M20.5048 6.41468L20.3727 5.74859C20.2542 5.15096 19.9853 4.58625 19.3718 4.37025C19.1752 4.30114 18.9521 4.27146 18.8013 4.12841C18.6505 3.98539 18.606 3.76325 18.5711 3.55725C18.5065 3.17917 18.4458 2.80076 18.3796 2.42332C18.3225 2.09883 18.2773 1.73431 18.1284 1.43662C17.9347 1.03691 17.5327 0.803144 17.133 0.648488C16.9282 0.572029 16.7192 0.50735 16.507 0.454765C15.5083 0.1913 14.4583 0.0944382 13.4309 0.039227C12.1978 -0.0288182 10.9614 -0.00831713 9.73114 0.100573C8.81548 0.183874 7.85105 0.284611 6.98092 0.601349C6.66289 0.71726 6.33517 0.856417 6.09335 1.10213C5.79662 1.40401 5.69976 1.87089 5.9164 2.24735C6.07042 2.51469 6.3313 2.70357 6.60801 2.82853C6.96842 2.98953 7.34482 3.11204 7.73096 3.19403C8.80612 3.43166 9.91971 3.52496 11.0181 3.56468C12.2356 3.61381 13.4549 3.57399 14.6666 3.44553C14.9662 3.4126 15.2653 3.3731 15.5639 3.32705C15.9155 3.27312 16.1411 2.81335 16.0375 2.49305C15.9135 2.11014 15.5803 1.96162 15.2035 2.01942C15.148 2.02812 15.0928 2.03619 15.0372 2.04426L14.9972 2.05008C14.8696 2.06623 14.7419 2.08128 14.6143 2.09528C14.3506 2.12369 14.0863 2.14694 13.8213 2.16503C13.2279 2.20635 12.6328 2.22539 12.0381 2.22637C11.4537 2.22637 10.869 2.2099 10.2858 2.17148C10.0198 2.15405 9.75439 2.13187 9.48964 2.10496C9.36921 2.09237 9.24909 2.07914 9.129 2.06428L9.01469 2.04976L8.98984 2.04621L8.87134 2.0291C8.62918 1.9926 8.38703 1.95064 8.14746 1.89994C8.12329 1.89457 8.10165 1.88114 8.08615 1.86182C8.07065 1.8425 8.06221 1.81848 8.06221 1.79372C8.06221 1.76896 8.07065 1.74493 8.08615 1.72562C8.10165 1.70631 8.12329 1.69286 8.14746 1.68749H8.15198C8.35959 1.64326 8.5688 1.60548 8.77866 1.57255C8.84864 1.56157 8.9188 1.55081 8.98918 1.54026H8.99112C9.12253 1.53155 9.25459 1.50797 9.38534 1.49248C10.523 1.37414 11.6675 1.33379 12.8107 1.37172C13.3657 1.38787 13.9204 1.42048 14.4729 1.47666C14.5917 1.48893 14.7099 1.50184 14.828 1.51637C14.8732 1.52186 14.9187 1.52832 14.9643 1.53381L15.056 1.54704C15.3233 1.58687 15.5892 1.63519 15.8538 1.69202C16.2458 1.77725 16.7491 1.80502 16.9235 2.23444C16.979 2.37069 17.0042 2.52212 17.0349 2.66514L17.0739 2.84757C17.075 2.85084 17.0757 2.8542 17.0762 2.85758C17.1685 3.28808 17.261 3.71857 17.3535 4.14907C17.3603 4.18088 17.3605 4.21374 17.354 4.2456C17.3475 4.27748 17.3346 4.30765 17.3159 4.3343C17.2972 4.36093 17.2733 4.38342 17.2455 4.40039C17.2178 4.41735 17.1869 4.4284 17.1546 4.43289H17.1521L17.0956 4.44064L17.0397 4.44805C16.8628 4.47109 16.6856 4.49262 16.5083 4.51264C16.1589 4.55246 15.809 4.58689 15.4586 4.61596C14.7623 4.67385 14.0645 4.71184 13.3654 4.72993C13.0092 4.73939 12.653 4.74382 12.297 4.74316C10.8799 4.74205 9.46406 4.65968 8.05641 4.49648C7.90401 4.47841 7.75162 4.45903 7.59921 4.43934C7.71739 4.45452 7.51333 4.42771 7.47201 4.42191C7.37514 4.40834 7.27828 4.39425 7.18142 4.37962C6.85628 4.33085 6.5331 4.2708 6.2086 4.21816C5.81631 4.15359 5.44114 4.18589 5.0863 4.37962C4.79503 4.539 4.55929 4.78341 4.41053 5.08025C4.25748 5.39666 4.21196 5.74116 4.14351 6.08116C4.07506 6.42114 3.96851 6.78695 4.00887 7.13597C4.09572 7.88924 4.62233 8.5014 5.37979 8.63831C6.09237 8.76745 6.80883 8.87206 7.52721 8.96118C10.3492 9.3068 13.2002 9.34814 16.0311 9.08452C16.2616 9.06299 16.4918 9.03954 16.7217 9.01413C16.7935 9.00625 16.8661 9.01451 16.9343 9.03834C17.0025 9.06217 17.0645 9.10095 17.1158 9.15184C17.167 9.20273 17.2063 9.26445 17.2306 9.33245C17.2549 9.40048 17.2637 9.47308 17.2563 9.54493L17.1847 10.2417C17.0402 11.6496 16.8958 13.0575 16.7514 14.4652C16.6007 15.9435 16.4491 17.4217 16.2964 18.8998C16.2534 19.3162 16.2104 19.7324 16.1673 20.1484C16.126 20.5582 16.1202 20.9808 16.0424 21.3857C15.9196 22.0224 15.4886 22.4134 14.8597 22.5564C14.2834 22.6876 13.6948 22.7565 13.1039 22.7617C12.4488 22.7653 11.794 22.7362 11.1389 22.7398C10.4395 22.7437 9.58296 22.6792 9.04311 22.1586C8.5688 21.7015 8.50326 20.9856 8.43869 20.3666C8.35259 19.5471 8.26725 18.7279 8.18264 17.9086L7.70803 13.3532L7.40098 10.4057C7.3958 10.357 7.39064 10.3089 7.3858 10.2598C7.34898 9.90817 7.10005 9.56399 6.70776 9.58174C6.37198 9.59659 5.99035 9.88201 6.02974 10.2598L6.25735 12.445L6.7281 16.9652C6.86221 18.2492 6.99598 19.5333 7.12944 20.8177C7.15528 21.0637 7.17948 21.3105 7.2066 21.5565C7.35416 22.901 8.38089 23.6255 9.65237 23.8294C10.395 23.949 11.1557 23.9735 11.9092 23.9857C12.8753 24.0013 13.851 24.0385 14.8012 23.8634C16.2093 23.605 17.2657 22.6649 17.4165 21.2065C17.4596 20.7854 17.5026 20.3643 17.5456 19.9431C17.6888 18.55 17.8317 17.1568 17.9744 15.7635L18.4413 11.211L18.6554 9.12456C18.666 9.02109 18.7097 8.92382 18.78 8.84712C18.8502 8.77043 18.9433 8.71838 19.0454 8.69868C19.448 8.62022 19.8329 8.48622 20.1193 8.17982C20.5752 7.69197 20.6659 7.05591 20.5048 6.41468ZM5.35913 6.86477C5.36526 6.86186 5.35396 6.91448 5.34912 6.93902C5.34815 6.90189 5.35009 6.86895 5.35913 6.86477ZM5.39819 7.16697C5.40142 7.1647 5.41111 7.17763 5.42112 7.19313C5.40594 7.17891 5.39626 7.16827 5.39787 7.16697H5.39819ZM5.43662 7.21766C5.45793 7.25609 5.4505 7.24123 5.43662 7.21766ZM5.51378 7.28029H5.51572C5.51572 7.28256 5.51927 7.28482 5.52056 7.28709C5.51842 7.28459 5.51604 7.28232 5.51346 7.28029H5.51378ZM19.0267 7.18666C18.882 7.3242 18.6641 7.38813 18.4487 7.42011C16.0336 7.7785 13.5834 7.95995 11.1418 7.87988C9.39439 7.82015 7.66541 7.62609 5.93546 7.38168C5.76595 7.35779 5.58223 7.32679 5.46567 7.20184C5.24612 6.96614 5.35396 6.49152 5.41111 6.20675C5.46341 5.94586 5.56351 5.59814 5.87379 5.561C6.3581 5.50418 6.92053 5.70855 7.39969 5.7812C7.97655 5.86923 8.55557 5.93973 9.13673 5.99268C11.617 6.2187 14.139 6.1835 16.6083 5.85289C17.0584 5.79239 17.5069 5.72211 17.9538 5.64205C18.3519 5.57068 18.7932 5.4367 19.0338 5.849C19.1988 6.12991 19.2207 6.50573 19.1952 6.82311C19.1873 6.96139 19.1269 7.09145 19.0263 7.18666H19.0267Z" fill="currentColor"/>
</g>
<defs>
<clipPath id="clip0_2126_104">
<rect width="24" height="24" fill="white"/>
</clipPath>
</defs>
</svg>
