<svg width="24" height="24" viewBox="0 0 24 24" fill="none" xmlns="http://www.w3.org/2000/svg">
<path d="M21.4125 5.41255C22.1938 4.6313 22.1938 3.36255 21.4125 2.5813C20.6313 1.80005 19.3625 1.80005 18.5813 2.5813L12 9.1688L5.41255 2.58755C4.6313 1.8063 3.36255 1.8063 2.5813 2.58755C1.80005 3.3688 1.80005 4.63755 2.5813 5.4188L9.1688 12L2.58755 18.5875C1.8063 19.3688 1.8063 20.6376 2.58755 21.4188C3.3688 22.2001 4.63755 22.2001 5.4188 21.4188L12 14.8313L18.5875 21.4125C19.3688 22.1938 20.6376 22.1938 21.4188 21.4125C22.2001 20.6313 22.2001 19.3625 21.4188 18.5813L14.8313 12L21.4125 5.41255Z" fill="currentColor"/>
</svg>
