<svg width="24" height="24" viewBox="0 0 24 24" fill="none" xmlns="http://www.w3.org/2000/svg">
<path d="M12.4241 13.8117H10.9373C10.8526 13.8129 10.7708 13.7807 10.7097 13.7221C10.6814 13.695 10.6596 13.6618 10.6462 13.625C10.6327 13.5882 10.6278 13.5488 10.6319 13.5098L10.7634 12.1663C10.7762 12.023 10.9092 11.913 11.0683 11.9135H12.5556C12.6426 11.9135 12.7244 11.9458 12.7833 12.0036C12.8411 12.0609 12.8698 12.1381 12.8611 12.2154L12.7296 13.5594C12.7168 13.7027 12.5838 13.8122 12.4241 13.8117ZM12.6625 11.1804H11.1481C11.109 11.1811 11.0701 11.1742 11.0337 11.1599C10.9973 11.1456 10.9641 11.1243 10.9359 11.0972C10.9077 11.07 10.8852 11.0376 10.8695 11.0018C10.8539 10.9659 10.8455 10.9273 10.8447 10.8882L11.2571 6.34754C11.2674 6.27501 11.3038 6.20876 11.3597 6.16133C11.4155 6.11391 11.4868 6.08859 11.56 6.09019H13.0744C13.2417 6.09019 13.3778 6.22117 13.3778 6.38233L12.9531 10.9256C12.9426 10.9956 12.9077 11.0595 12.8545 11.1062C12.8013 11.1528 12.7333 11.1791 12.6625 11.1804ZM21.569 5.88554L17.6458 1.32233C17.5588 1.22118 17.451 1.14001 17.3298 1.08438C17.2086 1.02875 17.0767 0.999968 16.9433 1.00001H5.1938C4.96512 0.999154 4.74427 1.08327 4.57411 1.23604C4.40394 1.38882 4.29659 1.59935 4.27287 1.8268L2.86385 17.8305C2.84134 18.0879 2.92831 18.3421 3.10329 18.533C3.19013 18.627 3.29553 18.702 3.41283 18.7533C3.53012 18.8045 3.65677 18.8309 3.78478 18.8307H6.09222L5.74124 23L10.2789 18.8338H15.433C15.6735 18.8338 15.9047 18.7417 16.0777 18.5744L20.9187 13.8905C21.0783 13.736 21.1765 13.5298 21.1955 13.3087L21.7874 6.56345C21.798 6.44159 21.7841 6.31886 21.7466 6.20244C21.7091 6.08602 21.6487 5.97828 21.569 5.88554ZM17.9809 12.022C17.9625 12.2439 17.8641 12.4515 17.7041 12.6063L14.9014 15.2652C14.7289 15.4287 14.5001 15.5195 14.2624 15.519H7.40659C7.27908 15.5174 7.15323 15.4898 7.03675 15.4379C6.92027 15.386 6.81562 15.3109 6.72919 15.2171C6.64295 15.1236 6.57683 15.0133 6.53494 14.8932C6.49305 14.7731 6.47628 14.6456 6.48566 14.5187L7.31552 5.14931C7.33924 4.92186 7.44659 4.71133 7.61676 4.55855C7.78692 4.40578 8.00777 4.32166 8.23645 4.32252H15.2089C15.476 4.32252 15.7308 4.43814 15.9058 4.63973L18.1191 7.18559C18.2858 7.36875 18.3718 7.61126 18.357 7.85787L17.9809 12.022Z" fill="currentColor"/>
</svg>
