<svg width="25" height="25" viewBox="0 0 25 25" fill="currentColor" xmlns="http://www.w3.org/2000/svg">
<path d="M23.2498 7.9569C23.1642 6.19593 22.7604 4.63063 21.4756 3.34658C20.1909 2.06253 18.6247 1.65898 16.8627 1.57337C15.0396 1.47554 9.59465 1.47554 7.78375 1.57337C6.02179 1.65898 4.46786 2.06253 3.17086 3.34658C1.87387 4.63063 1.48231 6.19593 1.39666 7.9569C1.29877 9.77903 1.29877 15.221 1.39666 17.0431C1.48231 18.8041 1.8861 20.3694 3.17086 21.6534C4.46786 22.9375 6.02179 23.341 7.78375 23.4266C9.60688 23.5245 15.0518 23.5245 16.8627 23.4266C18.6247 23.341 20.1909 22.9375 21.4756 21.6534C22.7604 20.3694 23.1642 18.8041 23.2498 17.0431C23.3477 15.221 23.3477 9.77904 23.2498 7.96915V7.9569ZM12.311 18.3027C9.10523 18.3027 6.499 15.6979 6.499 12.4939C6.499 9.28988 9.10523 6.6851 12.311 6.6851C15.5168 6.6851 18.123 9.28988 18.123 12.4939C18.123 15.6979 15.5168 18.3027 12.311 18.3027ZM19.0652 6.99082C18.3922 6.99082 17.8416 6.44052 17.8416 5.76792C17.8416 5.09532 18.38 4.54502 19.0652 4.54502C19.7381 4.54502 20.2887 5.09532 20.2887 5.76792C20.2887 6.44052 19.7381 6.99082 19.0652 6.99082ZM16.2877 12.4939C16.2877 14.6829 14.5012 16.4683 12.311 16.4683C10.1208 16.4683 8.33438 14.6829 8.33438 12.4939C8.33438 10.3049 10.1208 8.51945 12.311 8.51945C14.5012 8.51945 16.2877 10.3049 16.2877 12.4939Z" fill="currentColor"/>
</svg>
