<svg width="24" height="24" viewBox="0 0 24 24" fill="none" xmlns="http://www.w3.org/2000/svg">
<path fill-rule="evenodd" clip-rule="evenodd" d="M1 11.6799C1 2.7923 12.3512 -2.82376 19.6075 4.1003C23.4924 7.7957 24.1642 13.8917 20.9798 18.3459C17.03 23.7567 11.8696 22.9586 6.94335 22.9586V12.4115C6.98953 10.0822 7.76585 8.07382 10.6006 7.114C13.0703 6.3837 15.9502 7.75326 16.8189 10.356C17.7338 13.1421 16.4076 15.013 14.8528 16.1551C13.2991 17.2972 10.8755 17.2973 9.27561 16.2013V19.8079C12.7284 21.4574 18.1923 19.4739 19.9286 14.9681C21.1172 11.8174 20.2936 8.16501 17.825 5.88188C14.8539 3.46148 11.6068 2.86837 8.13312 4.55738C5.70959 5.79065 4.01841 8.30189 3.60606 11.0408V22.9586H1.04618L1 11.6799Z" fill="currentColor"/>
</svg>
