<svg width="25" height="25" viewBox="0 0 25 25" fill="none" xmlns="http://www.w3.org/2000/svg">
<path d="M9.16528 23.1997H4.66528C3.4231 23.1997 2.41528 22.1919 2.41528 20.9497V4.44971C2.41528 3.20752 3.4231 2.19971 4.66528 2.19971H9.16528C10.4075 2.19971 11.4153 3.20752 11.4153 4.44971V20.9497C11.4153 22.1919 10.4075 23.1997 9.16528 23.1997ZM23.4153 20.9497V4.44971C23.4153 3.20752 22.4075 2.19971 21.1653 2.19971H16.6653C15.4231 2.19971 14.4153 3.20752 14.4153 4.44971V20.9497C14.4153 22.1919 15.4231 23.1997 16.6653 23.1997H21.1653C22.4075 23.1997 23.4153 22.1919 23.4153 20.9497Z" fill="currentColor"/>
</svg>
