<svg width="24" height="24" viewBox="0 0 24 24" fill="none" xmlns="http://www.w3.org/2000/svg">
<path d="M21.3833 6.14855C21.1759 5.89229 20.9348 5.6583 20.6676 5.44946C20.7034 6.11208 20.642 6.81804 20.4824 7.56528C20.0465 9.60678 19.0045 11.3416 17.4688 12.5817C15.9343 13.821 14.0183 14.4762 11.9279 14.4762H8.87952L7.89279 19.099C7.69901 20.0062 6.88535 20.6645 5.95787 20.6645H4.58374L4.33631 21.8003C4.27276 22.0928 4.3449 22.3984 4.53266 22.6314C4.72033 22.8645 5.00368 23.0001 5.30303 23.0001H8.66225C9.12902 23.0001 9.53239 22.6738 9.62973 22.2174L10.7835 16.8116H14.6322C16.494 16.8116 18.195 16.2325 19.5517 15.1369C20.909 14.0409 21.8314 12.5007 22.2193 10.6833C22.6121 8.84571 22.3308 7.31997 21.3833 6.14855Z" fill="currentColor"/>
<path d="M6.9252 18.8923L8.07899 13.4867H11.9277C13.7893 13.4867 15.4905 12.9075 16.8471 11.8119C18.2043 10.7159 19.1269 9.17567 19.5148 7.35836C19.9075 5.52068 19.6263 3.995 18.6786 2.82358C17.769 1.69874 16.214 1 14.6209 1H6.2355C5.7703 1 5.36794 1.32416 5.26888 1.77865L1.63177 18.4754C1.56812 18.7679 1.64026 19.0734 1.82813 19.3066C2.0157 19.5396 2.29894 19.6751 2.5984 19.6751H5.95772C6.42448 19.6751 6.8276 19.3489 6.9252 18.8923ZM10.0038 4.80341H12.6422C13.2629 4.80341 13.8179 5.06351 14.165 5.51715C14.5336 5.99902 14.6414 6.66533 14.4607 7.34522C14.4583 7.35386 14.4562 7.3625 14.4541 7.37129C14.1222 8.7721 12.742 9.91179 11.3777 9.91179H8.84941L10.0038 4.80341Z" fill="currentColor"/>
</svg>
