<svg width="24" height="25" viewBox="0 0 24 25" fill="none" xmlns="http://www.w3.org/2000/svg">
<path d="M9.18312 10.4819L7.70311 11.411C8.74311 13.7444 10.7422 15.611 13.2373 16.5868L14.2196 15.2026C14.7565 14.4459 15.8311 14.2151 16.6658 14.6785L19.0116 15.981C19.4996 16.2518 19.7511 16.7817 19.64 17.3034L19.6374 17.3176C19.1822 19.451 16.8951 20.816 14.6578 20.2394C9.36711 18.876 5.256 15.0101 3.80711 10.0609C3.19289 7.96345 4.65066 5.8227 6.92533 5.39603C7.48 5.29187 8.04357 5.52677 8.33334 5.98177L9.73422 8.18432C10.2311 8.96682 9.98934 9.97522 9.18312 10.4819Z" fill="currentColor"/>
</svg>
