<svg width="24" height="24" viewBox="0 0 24 24" fill="none" xmlns="http://www.w3.org/2000/svg">
<g clip-path="url(#clip0_2137_119)">
<path d="M12 0C5.36761 0 0 5.36709 0 12C0 18.6324 5.36709 24 12 24C18.6324 24 24 18.6329 24 12C24 5.36761 18.6329 0 12 0ZM12 22.4348C6.24628 22.4348 1.5652 17.7538 1.5652 12C1.5652 6.24623 6.24628 1.5652 12 1.5652C17.7537 1.5652 22.4348 6.24628 22.4348 12C22.4348 17.7537 17.7537 22.4348 12 22.4348Z" fill="currentColor"/>
<path d="M18.269 5.73086C16.5921 4.0539 14.3656 3.13037 11.9999 3.13037C11.5677 3.13037 11.2173 3.48076 11.2173 3.913C11.2173 4.34523 11.5677 4.69562 11.9999 4.69562C13.9476 4.69562 15.7809 5.45636 17.1622 6.83767C18.5435 8.21898 19.3043 10.0523 19.3043 11.9999C19.3043 12.4321 19.6546 12.7825 20.0869 12.7825C20.5191 12.7825 20.8695 12.4322 20.8695 11.9999C20.8695 9.63418 19.9459 7.40776 18.269 5.73086Z" fill="currentColor"/>
<path d="M11.9999 19.3043C10.0523 19.3043 8.21893 18.5435 6.83762 17.1622C5.45631 15.7809 4.69557 13.9476 4.69557 11.9999C4.69557 11.5677 4.34518 11.2173 3.91295 11.2173C3.48071 11.2173 3.13037 11.5677 3.13037 11.9999C3.13037 14.3656 4.0539 16.5921 5.73086 18.269C7.40776 19.946 9.63418 20.8695 11.9999 20.8695C12.4321 20.8695 12.7825 20.5191 12.7825 20.0868C12.7825 19.6546 12.4321 19.3043 11.9999 19.3043Z" fill="currentColor"/>
<path d="M11.9999 6.26074C8.83535 6.26074 6.26074 8.8353 6.26074 11.9999C6.26074 15.1645 8.8353 17.739 11.9999 17.739C15.1645 17.739 17.739 15.1645 17.739 11.9999C17.739 8.8353 15.1645 6.26074 11.9999 6.26074ZM11.9999 16.1738C9.69837 16.1738 7.82599 14.3014 7.82599 11.9999C7.82599 9.69841 9.69841 7.82599 11.9999 7.82599C14.3014 7.82599 16.1738 9.69841 16.1738 11.9999C16.1738 14.3014 14.3014 16.1738 11.9999 16.1738Z" fill="currentColor"/>
<path d="M12 10.9565C11.4245 10.9565 10.9565 11.4245 10.9565 12C10.9565 12.5755 11.4245 13.0435 12 13.0435C12.5755 13.0435 13.0435 12.5755 13.0435 12C13.0435 11.4245 12.5755 10.9565 12 10.9565Z" fill="#0D0D0D"/>
</g>
<defs>
<clipPath id="clip0_2137_119">
<rect width="24" height="24" fill="white"/>
</clipPath>
</defs>
</svg>
