<svg width="25" height="25" viewBox="0 0 25 25" fill="none" xmlns="http://www.w3.org/2000/svg">
<path d="M22.8612 7.00465C22.6082 6.02109 21.8602 5.24339 20.9142 4.98034C19.1982 4.5 12.3232 4.5 12.3232 4.5C12.3232 4.5 5.44825 4.5 3.73224 4.98034C2.78624 5.24339 2.03826 6.02109 1.78526 7.00465C1.32326 8.78878 1.32324 12.5171 1.32324 12.5171C1.32324 12.5171 1.32326 16.2455 1.78526 18.0297C2.03826 19.0132 2.78624 19.7566 3.73224 20.0197C5.44825 20.5 12.3232 20.5 12.3232 20.5C12.3232 20.5 19.1982 20.5 20.9142 20.0197C21.8602 19.7566 22.6082 19.0132 22.8612 18.0297C23.3232 16.2455 23.3232 12.5171 23.3232 12.5171C23.3232 12.5171 23.3232 8.78878 22.8612 7.00465ZM10.1232 15.9367V9.07469L15.6232 12.5057L10.1232 15.9367Z" fill="currentColor"/>
</svg>
