<svg width="1102" height="372" viewBox="0 0 1102 372" fill="none" xmlns="http://www.w3.org/2000/svg">
<path d="M50.3231 200.8C32.1231 200.8 15.7231 199.2 0.52314 196L0.823143 194.7C26.2231 200.1 55.4232 200.9 90.1232 197.2C165.123 189 253.823 160 347.623 129.3C460.323 92.4 576.923 54.3 692.823 42.7C825.223 29.4 932.423 54.7 1020.52 119.8C1044.92 138 1067.52 158.7 1087.82 181.4C1092.12 186.2 1096.62 191.4 1101.12 196.8L1100.12 197.6C1095.62 192.1 1091.22 187 1086.82 182.2C1066.62 159.5 1044.12 138.9 1019.72 120.8C931.923 55.9 825.023 30.7 692.923 44C577.223 55.6 460.723 93.7 348.023 130.6C254.123 161.3 165.423 190.3 90.2232 198.5C76.1232 200 62.8232 200.8 50.3231 200.8Z" fill="url(#paint0_linear_2097_322)"/>
<path d="M45.7231 231.3C29.4231 231.3 14.4231 229.9 0.623142 227L0.923141 225.7C27.0231 231.1 57.1232 231.4 92.9232 226.5C168.123 216.4 256.823 184.9 350.623 151.5C462.823 111.6 578.923 70.3 694.123 55.8C825.823 39.3 932.423 62.3 1020.02 126.1C1044.72 144.2 1067.52 164.9 1087.82 187.7C1092.62 193 1097.02 198 1101.12 203L1100.12 203.8C1096.02 198.8 1091.72 193.8 1086.92 188.5C1066.62 165.7 1043.92 145.1 1019.32 127.1C931.923 63.5 825.623 40.6 694.323 57.1C579.223 71.5 463.223 112.8 351.123 152.7C257.223 186.1 168.523 217.7 93.1232 227.8C76.0232 230.2 60.3232 231.3 45.7231 231.3Z" fill="url(#paint1_linear_2097_322)"/>
<path d="M42.0231 261.9C27.1231 261.9 13.3231 260.6 0.423141 258.1L0.723141 256.8C27.7231 262.1 58.6232 261.9 95.4232 255.9C170.923 243.9 259.623 209.8 353.523 173.6C465.223 130.6 580.723 86.2 695.323 68.9C826.223 49.2 932.223 69.9 1019.52 132.3C1044.42 150.2 1067.52 171 1087.92 193.9C1092.72 199.2 1097.02 204.2 1101.12 209.2L1100.12 210C1096.02 205.1 1091.72 200.1 1086.92 194.8C1066.52 171.9 1043.62 151.3 1018.72 133.4C931.823 71.2 826.023 50.5 695.523 70.2C581.123 87.5 465.623 131.9 354.023 174.9C260.023 211.1 171.223 245.2 95.6232 257.2C76.2232 260.4 58.5232 261.9 42.0231 261.9Z" fill="url(#paint2_linear_2097_322)"/>
<path d="M39.4231 292.4C25.6231 292.4 12.7231 291.2 0.623142 288.9L0.823143 287.6C28.5231 293 60.3232 292.2 98.1232 285.1C173.823 271.3 262.623 234.6 356.623 195.6C576.023 104.8 824.623 1.8 1019.02 138.6C1044.22 156.5 1067.42 177.3 1088.02 200.3C1092.72 205.5 1097.32 210.9 1101.12 215.5L1100.12 216.3C1096.32 211.8 1091.82 206.4 1087.02 201.2C1066.52 178.2 1043.32 157.5 1018.32 139.7C824.423 3.30002 576.223 106.1 357.123 196.8C263.023 235.7 174.223 272.5 98.4232 286.4C76.9232 290.4 57.3232 292.4 39.4231 292.4Z" fill="url(#paint3_linear_2097_322)"/>
<path d="M36.8231 323.2C23.9231 323.2 11.9231 322.1 0.52314 320L0.723141 318.7C29.0231 324 61.7232 322.7 100.723 314.6C176.723 298.8 265.523 259.4 359.623 217.7C487.523 161.1 619.623 102.5 748.523 87C818.523 78.5 879.623 83.8 935.423 102.9C997.823 124.4 1053.62 164.4 1101.12 221.8L1100.12 222.6C1052.72 165.4 997.223 125.5 935.023 104.1C879.423 85 818.523 79.8 748.723 88.2C620.023 103.7 488.023 162.2 360.323 218.8C266.123 260.5 177.223 299.9 101.123 315.7C77.5232 320.7 56.3232 323.2 36.8231 323.2Z" fill="url(#paint4_linear_2097_322)"/>
<path d="M312.523 253.1C274.723 253.1 237.423 249.5 201.123 242.2C133.023 228.6 65.5232 201.7 0.323242 162.2L1.02324 161.1C66.1232 200.5 133.523 227.3 201.423 240.9C261.823 253 324.923 255 388.923 246.9C455.723 238.4 525.223 219 601.423 187.6C667.923 160.2 731.023 127.1 786.723 98C857.323 61 918.223 29.1 970.923 15.2C1028.92 -0.099988 1070.32 9.00001 1101.12 43.7L1100.12 44.6C1069.72 10.3 1028.82 1.4 971.323 16.5C918.723 30.3 857.823 62.2 787.323 99.2C731.623 128.4 668.523 161.4 601.923 188.9C525.623 220.3 456.023 239.8 389.123 248.2C363.423 251.4 337.823 253.1 312.523 253.1Z" fill="url(#paint5_linear_2097_322)"/>
<path d="M303.923 280C269.023 280 234.723 276.8 201.223 270.4C133.223 257.5 65.6232 230.9 0.423141 191.4L1.12314 190.3C66.2232 229.7 133.623 256.2 201.523 269.1C261.923 280.6 325.023 281.7 389.023 272.4C456.023 262.7 525.723 241.7 602.123 208.1C668.823 178.8 732.023 143.8 787.823 112.9C858.123 74 918.823 40.3 971.423 25.2C1029.32 8.50002 1070.52 16.9 1101.22 51.5L1100.22 52.4C1069.92 18.2 1029.12 10 971.823 26.5C919.323 41.6 858.623 75.2 788.423 114.1C732.623 145 669.323 180.1 602.623 209.4C526.123 243 456.223 264 389.123 273.8C360.523 277.9 332.023 280 303.923 280Z" fill="url(#paint6_linear_2097_322)"/>
<path d="M295.723 307.1C263.723 307.1 232.123 304.3 201.223 298.8C133.123 286.6 65.6232 260.4 0.423141 220.9L1.12314 219.8C66.2232 259.2 133.623 285.3 201.523 297.5C261.923 308.4 325.023 308.6 389.023 298.1C456.223 287.1 526.123 264.4 602.723 228.8C669.623 197.7 732.923 160.6 788.923 128C858.923 87.1 919.423 51.7 971.823 35.3C1029.52 17.2 1070.62 24.9 1101.22 59.4L1100.22 60.3C1070.02 26.2 1029.32 18.6 972.223 36.6C919.923 53 859.523 88.3 789.523 129.2C733.623 161.9 670.223 198.9 603.223 230.1C526.423 265.8 456.423 288.5 389.123 299.5C357.723 304.6 326.523 307.1 295.723 307.1Z" fill="url(#paint7_linear_2097_322)"/>
<path d="M287.823 334.3C258.523 334.3 229.523 331.9 201.223 327.1C133.123 315.5 65.6232 289.6 0.423141 250.2L1.12314 249.1C66.2232 288.5 133.623 314.3 201.523 325.8C261.923 336.1 325.023 335.4 389.023 323.7C456.323 311.5 526.423 287.1 603.323 249.3C670.323 216.3 733.823 177.3 789.823 142.9C859.623 100 919.923 63 972.223 45.3C1029.72 25.8 1070.72 32.8 1101.32 67.3L1100.32 68.2C1070.12 34.2 1029.62 27.3 972.623 46.6C920.523 64.2 860.323 101.2 790.523 144.1C734.523 178.5 671.023 217.5 603.923 250.6C527.023 288.5 456.823 312.8 389.323 325.1C355.023 331.2 321.223 334.3 287.823 334.3Z" fill="url(#paint8_linear_2097_322)"/>
<path d="M280.623 361.6C253.723 361.6 227.223 359.5 201.223 355.4C133.123 344.5 65.5232 319 0.323242 279.6L1.02324 278.5C66.1232 317.9 133.523 343.3 201.423 354.2C261.823 363.9 324.923 362.3 388.823 349.5C456.323 336 526.623 310 603.623 270C670.823 235.1 734.423 194.1 790.523 158C860.123 113.2 920.223 74.4 972.323 55.5C1029.62 34.6 1070.62 41 1101.02 75.4L1100.02 76.3C1069.92 42.3 1029.52 36.2 972.723 56.8C920.823 75.7 860.723 114.4 791.223 159.2C735.123 195.4 671.423 236.4 604.223 271.3C527.123 311.3 456.723 337.4 389.123 350.9C352.623 357.9 316.323 361.6 280.623 361.6Z" fill="url(#paint9_linear_2097_322)"/>
<path d="M125.123 285.8C128.023 279.2 129.023 271.9 127.823 264.7C127.123 260 125.623 255.5 123.523 251.2C121.423 247.2 118.723 243.5 115.423 240.4C112.323 237.1 108.423 234.8 104.123 233.5C99.7232 232 95.0232 231.6 90.5232 232.4L84.9232 233.9L76.1232 209.5C80.5232 203.9 84.1232 197.7 86.8232 191.1C89.3232 184.4 91.0232 177.5 91.9232 170.4C92.3232 168.6 92.5233 166.8 92.7233 165C92.8233 163.9 92.7232 161.8 92.6232 159C92.5232 155.6 92.2233 152.3 91.7233 148.9C89.4233 133.8 83.8232 121.3 74.8232 111.7L71.9232 109.2C71.2232 108.9 70.5232 108.7 69.7232 108.7C68.4232 108.9 66.6232 110.1 64.2232 112.7C61.7232 115.2 59.5232 119 57.7232 123.9C55.8232 129.2 54.7232 134.7 54.5232 140.4C54.0232 146.9 54.2232 153.4 55.3232 159.9C56.1232 165.1 57.3232 170.1 58.8232 175.1L64.7232 190.7V190.6C60.1232 196.9 55.7232 203.1 51.7232 209L47.0232 216.6L42.8232 224.8C42.0232 226.5 41.4232 227.9 40.8232 229.3C40.2232 230.7 39.7232 232.1 39.1232 233.6L36.4232 243C36.0232 244.6 35.8232 246.2 35.6232 247.8C35.3232 249.3 35.2232 250.8 35.1232 252.3C34.9232 255.5 35.1232 258.7 35.6232 261.9C36.7232 268.8 39.1232 275.4 42.7232 281.4C46.1232 287.4 50.6232 292.8 55.9232 297.3C61.3232 301.4 67.3232 304.6 73.8232 306.8C80.3232 308.5 87.1232 309 93.8232 308L99.8232 306.7L105.323 304.7L109.523 315.8L112.023 321.9C112.523 322.7 112.823 323.5 113.123 324.3C113.323 325.2 113.623 326.4 114.123 328.1C115.023 330.7 115.723 333.5 116.123 336.3C116.723 339.9 116.823 343.6 116.423 347.3L115.423 350.7L113.223 354.3C111.323 356.7 108.923 358.8 106.223 360.3C103.723 361.8 100.923 362.8 98.0232 363.3C92.3232 364.1 87.9232 362.8 84.9232 359.3L86.4232 359.1C90.0232 358.7 93.3232 356.7 95.4232 353.7C97.5232 350.7 98.3233 347.1 97.7233 343.5C97.4233 340.8 96.3232 338.3 94.8232 336.1C93.3232 333.9 91.2232 332.2 88.8232 331.2C86.4232 330.3 83.9232 330.1 81.4232 330.4C78.6232 330.9 76.1232 332.2 74.2232 334.2C72.2232 336.3 70.8232 338.8 70.0232 341.5L69.1232 346.2C68.9232 347.6 68.9232 349 69.1232 350.3C69.9232 356.7 73.9232 362.2 79.8232 364.9C85.6232 368 92.3232 369.1 98.9232 368.1C103.623 367.4 108.123 365.7 112.023 362.9C115.723 360.1 118.623 356.4 120.623 352.2C122.423 347.9 122.923 343.1 122.123 338.5L119.823 328.5L114.823 315L110.123 302.2C116.823 298.2 122.123 292.7 125.123 285.8ZM63.1232 174.9C62.9232 173.9 62.7232 172.7 62.5232 171.2L61.9232 163.1L62.3232 154.4L63.9232 145.9L66.1232 139.3C68.6232 134.1 71.6232 131.3 75.2232 130.7C76.9232 130.3 78.8233 130.7 80.2233 131.7C81.7233 133 82.8233 134.8 83.2233 136.7L84.3232 141.1C84.7232 145.2 84.6233 149.4 83.7233 153.5C82.9233 158.1 81.6233 162.6 79.7233 166.9L76.9232 173.2C76.0232 175.1 75.0232 176.8 73.8232 178.6C71.7232 182.2 69.6232 184.8 67.6232 186.2C66.2232 184.1 65.1232 181.9 64.2232 179.5C63.9232 178.1 63.4232 176.5 63.1232 174.9ZM91.4232 304.4C86.2232 305.3 80.9232 305.1 75.8232 303.7C71.0232 302.5 66.5232 300.3 62.5232 297.2C58.5232 294.3 55.0232 290.6 52.4232 286.4C51.2232 284.3 50.1232 282.1 49.1232 279.9C48.9232 279.3 48.6232 278.5 48.1232 277.3L47.5232 273.3C47.0232 270.8 46.9232 268.2 46.9232 265.6C47.0232 263.3 47.3232 260.7 47.7232 258.1C48.7232 252.9 50.4232 247.8 52.7232 243.1C55.1232 238.2 57.8232 233.5 60.9232 229C64.5232 223.8 68.4232 218.9 72.6232 214.2L80.2233 236.1C72.1233 241.2 66.4232 249.5 64.7232 259C64.3232 260.9 64.1232 262.9 64.0232 264.8C64.0232 266.3 64.1232 267.9 64.4232 269.4C65.2232 275.2 68.0232 280.5 72.3232 284.4C76.5232 288.5 82.0232 291.1 87.9232 291.6C88.0232 291.6 88.2232 291.5 88.5232 291.2C88.8232 291 89.0233 290.8 89.2233 290.4V290.3C89.0233 289.4 88.2232 288.8 87.3232 289C83.6232 287.9 80.3232 285.7 77.9232 282.7C75.5232 279.3 74.1232 276.3 73.8232 273.7C73.1232 269.1 74.2232 264.5 76.7232 260.6C79.5232 256.3 82.7232 253.4 86.3232 251.8L86.5232 252L103.723 300.4C99.7233 302.4 95.6232 303.7 91.4232 304.4ZM107.823 298.1L90.8232 250.7C95.0232 250 99.2232 250.5 103.123 252C106.823 253.7 110.023 256.1 112.723 259.2C115.423 262.5 117.323 266.2 118.423 270.3C120.323 283.4 116.823 292.7 107.823 298.1Z" fill="url(#paint10_linear_2097_322)"/>
<path d="M1068.42 158.7C1068.62 158.3 1068.82 157.9 1069.12 157.6L1068.52 157.1L1052.72 178.6L1052.62 178.7C1052.42 177.9 1051.92 177.3 1051.22 176.8C1050.52 176.3 1049.72 176 1048.82 175.9C1047.92 175.7 1046.92 175.8 1046.02 176C1045.22 176.2 1044.42 176.6 1043.92 177.3C1043.42 177.9 1043.32 178.6 1043.42 179.3C1043.62 180 1044.12 180.7 1044.72 181.1C1045.42 181.6 1046.32 181.9 1047.12 182.1C1048.02 182.3 1049.02 182.3 1049.92 182C1050.72 181.8 1051.52 181.3 1052.02 180.6L1059.82 170L1061.12 173.5C1061.42 174.3 1061.52 175.1 1061.72 175.9C1061.92 176.6 1061.92 177.4 1061.82 178.2C1061.62 179 1061.32 179.7 1060.82 180.4C1059.72 181.7 1058.42 182.7 1057.02 183.4L1057.42 183.7C1058.32 183.4 1059.12 183 1059.82 182.4C1060.02 182.3 1060.22 182.1 1060.52 181.9C1060.62 181.7 1060.82 181.6 1060.92 181.4L1061.72 180.4C1062.32 179.6 1062.72 178.7 1062.82 177.7C1063.42 177.2 1063.92 176.7 1064.32 176.1C1064.82 175.5 1065.12 174.8 1065.42 174C1068.02 171.9 1069.32 168.6 1068.82 165.2L1068.22 161.8C1068.12 161.5 1068.02 161.1 1068.02 160.8L1068.12 159.8C1068.22 159.3 1068.32 159 1068.42 158.7ZM1063.32 176L1062.82 176.6C1062.92 175.8 1062.92 174.9 1062.72 174.1L1062.22 171.1C1062.12 170.2 1062.02 169.3 1062.02 168.4C1062.02 168 1062.12 167.5 1062.32 167.1C1062.42 166.7 1062.62 166.3 1062.92 166V166.1C1064.92 170.2 1065.02 173.6 1063.32 176ZM1067.52 168.6C1067.52 169.8 1067.12 170.9 1066.42 171.8L1065.72 172.6C1065.92 171.7 1066.02 170.8 1065.92 169.9L1065.72 168.6L1065.42 166.9C1065.12 165.9 1065.02 164.9 1065.12 163.9C1065.22 163.2 1065.52 162.4 1065.92 161.8C1066.52 163.4 1066.92 164.7 1067.12 165.5C1067.32 166 1067.42 166.5 1067.42 167C1067.52 167.2 1067.52 167.5 1067.52 167.8C1067.52 168 1067.42 168.3 1067.52 168.6Z" fill="url(#paint11_linear_2097_322)"/>
<path d="M1033.62 51.1C1032.82 51.3 1032.02 51.7 1031.42 52.3C1030.62 52.9 1030.02 53.7 1029.62 54.5C1029.22 55.3 1029.12 56.1 1029.32 57C1029.42 57.7 1029.82 58.4 1030.52 58.7C1031.22 59 1032.02 59 1032.82 58.8C1033.72 58.6 1034.52 58.2 1035.12 57.6C1035.82 57 1036.42 56.2 1036.82 55.4C1037.22 54.6 1037.32 53.8 1037.12 52.9L1033.92 40.1L1037.42 41.3C1038.22 41.5 1039.02 41.9 1039.72 42.3C1040.42 42.6 1041.02 43.1 1041.52 43.7C1042.02 44.3 1042.32 45.1 1042.52 45.9C1042.82 47.5 1042.82 49.2 1042.42 50.8L1042.92 50.7C1043.22 49.8 1043.42 48.9 1043.42 48V47.2C1043.42 47 1043.42 46.8 1043.32 46.6L1043.02 45.2C1042.92 44.2 1042.42 43.3 1041.72 42.6C1041.72 41.8 1041.62 41.1 1041.42 40.3C1041.22 39.5 1040.92 38.8 1040.52 38.1C1040.52 37.2 1040.42 36.4 1040.22 35.6C1039.62 33.2 1038.02 31.2 1035.92 30L1033.02 28.3C1032.72 28.2 1032.32 28 1032.12 27.7L1031.32 27C1031.12 26.7 1030.92 26.3 1030.72 26C1030.52 25.7 1030.32 25.3 1030.22 24.9L1029.42 25.1L1036.02 51.1C1035.22 50.9 1034.42 50.9 1033.62 51.1ZM1031.52 30.2C1033.12 30.8 1034.22 31.2 1035.12 31.6C1035.62 31.8 1036.12 32 1036.52 32.4C1036.82 32.6 1037.12 32.8 1037.22 32.9C1037.42 33.1 1037.62 33.4 1037.92 33.6C1038.72 34.4 1039.32 35.4 1039.62 36.5L1039.82 37.4C1039.22 36.7 1038.62 36 1037.82 35.5L1036.72 34.7L1035.22 33.9C1034.32 33.5 1033.52 32.9 1032.82 32.2C1032.02 31.6 1031.62 30.9 1031.52 30.2ZM1033.12 36.2C1032.92 35.8 1032.72 35.5 1032.62 35.1C1037.22 36.3 1039.82 38.4 1040.62 41.2L1040.72 41.9C1040.12 41.3 1039.52 40.8 1038.72 40.4L1036.12 38.9C1035.32 38.4 1034.62 37.9 1033.92 37.3C1033.62 36.9 1033.42 36.6 1033.12 36.2Z" fill="url(#paint12_linear_2097_322)"/>
<path d="M1095.42 180.8C1095.32 180.2 1095.12 179.5 1094.82 178.9L1094.02 176.8C1093.42 175.6 1092.82 174.4 1091.92 173.3C1091.12 172.4 1090.52 171.3 1090.02 170.2C1089.82 169.7 1089.72 169.1 1089.62 168.5C1089.62 167.9 1089.72 167.3 1089.82 166.7L1088.92 166.5L1082.42 195V194.8C1081.82 194.1 1080.92 193.6 1080.02 193.4C1078.82 193.1 1077.62 193.2 1076.42 193.6C1075.22 193.9 1074.02 194.5 1073.02 195.3C1072.12 196 1071.52 196.9 1071.22 198C1071.12 198.5 1071.12 199 1071.32 199.4C1071.42 199.8 1071.62 200.1 1071.92 200.4C1072.62 201.1 1073.42 201.6 1074.32 201.7C1075.42 202 1076.62 202 1077.82 201.7C1078.42 201.5 1078.72 201.4 1078.72 201.4L1079.52 201.1C1080.02 200.9 1080.52 200.5 1080.92 200.2C1081.82 199.5 1082.42 198.5 1082.72 197.5L1086.42 181.3L1087.22 181.9L1088.22 182.9L1088.82 183.6L1089.22 183.9C1092.52 186.7 1093.82 189.7 1093.02 192.8C1092.42 194.9 1091.42 196.8 1090.02 198.3L1090.62 198.4C1091.52 197.6 1092.22 196.7 1092.72 195.7C1092.82 195.5 1093.02 195.2 1093.22 194.9C1093.32 194.7 1093.42 194.4 1093.52 194.1L1094.12 192.3C1094.62 190.9 1094.62 189.4 1094.12 188.1C1094.42 187.5 1094.72 186.9 1094.92 186.3C1095.12 185.8 1095.32 185.2 1095.42 184.7C1095.62 183.5 1095.62 182.2 1095.42 180.8ZM1094.22 185.8L1093.72 187.3C1093.22 185.8 1092.52 184.4 1091.52 183.2C1090.42 181.7 1089.52 180 1088.82 178.3C1088.22 176.9 1088.02 175.3 1088.42 173.8L1088.62 173.9L1089.62 174.8L1091.02 176.3C1091.82 177.1 1092.52 178 1093.02 179C1093.62 180 1094.02 181.1 1094.22 182.2C1094.32 182.8 1094.42 183.4 1094.42 184C1094.52 184.7 1094.42 185.3 1094.22 185.8Z" fill="url(#paint13_linear_2097_322)"/>
<path d="M1057.22 139.9C1058.32 140.3 1059.62 140.4 1060.82 140.3C1062.12 140.2 1063.32 139.8 1064.42 139.1C1065.32 138.6 1066.12 137.8 1066.52 136.8C1067.32 134.8 1066.52 133.3 1064.32 132.5C1064.02 132.3 1063.82 132.2 1063.52 132.2C1063.22 132.1 1062.92 132.1 1062.72 132L1060.92 131.9C1059.62 132 1058.42 132.3 1057.32 132.9C1056.32 133.4 1055.52 134.3 1055.12 135.4H1055.02L1043.72 164.8L1044.52 165.1C1045.02 163.6 1046.02 162.3 1047.22 161.3C1048.72 160.1 1050.42 159.1 1052.12 158.2C1053.82 157.3 1055.42 156.3 1057.02 155.1C1058.32 154.1 1059.22 152.8 1059.72 151.3C1060.02 150.8 1060.22 150.2 1060.32 149.6C1060.42 149 1060.52 148.5 1060.62 148L1060.82 146.2V144.6C1060.82 143.4 1060.72 142.2 1060.52 141H1059.82C1060.02 142.7 1060.02 144.4 1059.92 146.1C1059.92 147.5 1059.62 148.8 1059.12 150.1C1058.52 151.4 1057.72 152.5 1056.72 153.5C1055.52 154.5 1054.22 155.2 1052.72 155.7C1051.22 156.2 1049.72 156.3 1048.22 156L1055.02 138.3C1055.52 139 1056.32 139.6 1057.22 139.9Z" fill="url(#paint14_linear_2097_322)"/>
<path d="M1014.02 43.1C1013.92 41.5 1014.22 40 1014.92 38.6C1015.82 36.9 1016.92 35.3 1018.12 33.7C1019.32 32.2 1020.32 30.5 1021.22 28.8C1021.92 27.4 1022.32 25.8 1022.12 24.3C1022.02 23.7 1021.92 23.1 1021.82 22.5C1021.72 22 1021.62 21.4 1021.42 20.9L1020.82 19.2L1020.12 17.6C1019.62 16.5 1019.02 15.5 1018.32 14.5L1017.72 14.8C1018.62 16.2 1019.32 17.7 1019.92 19.3C1020.42 20.6 1020.72 21.9 1020.72 23.3C1020.82 24.7 1020.52 26 1019.92 27.3C1019.22 28.7 1018.32 29.9 1017.22 31C1016.12 32.1 1014.72 32.8 1013.32 33.1L1012.22 14.1C1013.12 14.6 1014.02 14.8 1015.02 14.7C1016.22 14.6 1017.32 14.2 1018.42 13.6C1019.52 12.9 1020.42 12 1021.12 11C1021.72 10.2 1022.12 9.10001 1022.02 8.10001C1021.82 5.90001 1020.62 4.90001 1018.22 5.10001C1017.82 5.10001 1017.52 5.20002 1017.42 5.20002C1017.12 5.20002 1016.82 5.30002 1016.62 5.40002L1014.92 6.10001C1013.82 6.70001 1012.82 7.50001 1012.12 8.50001C1011.42 9.40001 1011.12 10.6 1011.22 11.7V11.9L1013.12 43.5L1014.02 43.1Z" fill="url(#paint15_linear_2097_322)"/>
<path d="M1046.92 108.9C1039.82 108.4 1032.62 107.9 1025.52 107.2C1022.92 116.3 1020.12 125.4 1017.52 134.5C1014.92 131 1008.52 133.7 1007.62 137.4C1006.92 140.8 1010.92 141.5 1013.22 141C1014.62 140.6 1015.92 139.9 1016.92 138.7C1018.02 137.2 1018.52 134.3 1019.22 131.6C1021.22 124.8 1023.62 116.4 1025.52 110.5C1032.12 111.3 1038.92 111.4 1045.32 112.2C1042.92 120.2 1040.62 128.1 1038.22 136.1C1035.52 132.7 1029.32 135.2 1028.32 139C1028.02 140.4 1028.72 141.8 1029.92 142.5C1032.72 143.9 1036.12 142.1 1037.52 140C1038.42 138.6 1039.32 135.1 1040.02 132.4H1040.22C1042.52 124.8 1045.22 115.5 1047.12 108.9C1047.02 109 1047.02 109 1046.92 108.9Z" fill="url(#paint16_linear_2097_322)"/>
<path d="M1059.82 47.7C1061.12 46.9 1062.12 45.8 1062.72 44.5C1063.42 42.7 1063.12 39.8 1063.12 37.1C1063.22 30 1063.22 21.2 1063.52 15.1C1070.12 14 1076.72 12.4 1083.02 11.4C1082.92 19.7 1082.82 27.9 1082.62 36.3C1079.02 33.9 1073.82 37.8 1073.92 41.8C1074.12 43.2 1075.02 44.3 1076.32 44.7C1079.42 45.4 1082.22 42.6 1083.02 40.4C1083.62 38.7 1083.42 35.2 1083.42 32.4V32.2C1083.52 24.3 1083.72 14.5 1083.82 7.70001H1083.62C1076.62 9.10001 1069.62 10.5 1062.52 11.8C1062.42 21.3 1062.22 30.8 1062.12 40.3C1058.62 37.7 1053.22 41.9 1053.42 45.8C1053.82 49.1 1057.72 48.8 1059.82 47.7Z" fill="url(#paint17_linear_2097_322)"/>
<path d="M709.723 74.2L715.123 30.4C716.123 30.6 717.123 30.9 718.123 31.3C719.223 31.7 720.223 32.3 721.123 33.1C723.023 34.5 724.723 36.3 725.923 38.4C727.423 40.4 728.423 42.6 728.923 45C729.223 45.9 729.423 46.9 729.523 47.8C729.623 48.4 729.623 49 729.723 49.6L729.423 51.8L729.123 53.1L728.323 56C727.823 57.4 727.323 58.7 726.623 60L724.123 64.6L721.623 68.9L722.723 69.1C725.223 66 727.323 62.6 729.223 59.1C730.623 56.4 731.523 53.5 731.923 50.5C732.523 45.3 731.223 40.2 728.123 34.9L724.023 28.6L721.723 25.1L720.223 22.5C719.323 20.8 718.723 18.9 718.323 17C717.723 14.5 717.423 12 717.523 9.5L715.623 9.3L713.223 29.4L708.323 69C707.123 67.7 704.923 66.8 702.023 66.5C699.723 66.3 697.323 66.7 695.123 67.4C692.723 68.2 690.523 69.5 688.723 71.3C687.023 72.9 686.023 75.1 685.723 77.4C685.323 79.3 686.023 81.3 687.423 82.7C688.923 84.1 690.723 85 692.823 85.2C695.323 85.5 697.823 85.2 700.223 84.3C702.623 83.7 704.723 82.4 706.423 80.6C708.323 78.9 709.423 76.6 709.723 74.2Z" fill="url(#paint18_linear_2097_322)"/>
<path d="M788.723 130.7C788.023 129.8 787.523 128.9 786.923 128.3L784.723 125.7L782.423 123.3C780.823 121.8 779.023 120.4 777.223 119.1L776.423 119.9C778.923 121.9 781.123 124 783.323 126.4C785.023 128.3 786.423 130.4 787.423 132.8C788.523 135.2 788.923 137.8 788.823 140.4C788.623 143.3 787.923 146 786.623 148.6C785.323 151.1 783.423 153.3 781.123 154.9L766.223 122.4C768.123 122.7 770.023 122.4 771.723 121.6C773.823 120.6 775.523 119.1 776.923 117.3C778.423 115.5 779.523 113.3 779.923 110.9C780.423 109 780.323 107 779.623 105.2C777.923 101.5 775.023 100.6 770.923 102.5C770.423 102.7 769.923 102.9 769.423 103.3C768.923 103.6 768.523 103.9 768.123 104.2L765.623 106.6C764.123 108.4 762.923 110.5 762.323 112.8C761.623 114.9 761.823 117.1 762.823 119.1L787.523 172.9L789.023 172.3C787.823 169.6 787.323 166.7 787.623 163.7C788.023 160.1 788.823 156.5 789.823 153C790.823 149.5 791.623 146 792.023 142.4C792.323 139.5 791.823 136.5 790.523 133.8C789.823 132.7 789.323 131.7 788.723 130.7Z" fill="url(#paint19_linear_2097_322)"/>
<path d="M752.223 185.2C749.523 170.5 746.223 152.7 743.823 140C743.723 140 743.523 140.1 743.423 140.1C731.123 145.3 718.623 150.4 706.223 155.5C709.423 173 712.723 190.6 715.923 208.1C708.623 204.5 700.023 214.4 701.923 221.4C703.623 227.6 710.923 225.6 714.123 222.7C716.223 220.9 717.723 218.5 718.223 215.8C718.823 212.3 717.223 207 716.223 202C713.723 188.9 710.723 172.8 708.923 161.3C720.623 156.9 732.223 151.5 743.423 147.4C746.223 162.7 749.023 178 751.923 193.3C744.523 190 736.223 199.3 737.923 206.6C738.623 209.1 740.923 210.9 743.623 211C749.623 211 753.823 205 754.323 200.5C754.723 197.2 753.123 190.7 752.123 185.5L752.223 185.2Z" fill="url(#paint20_linear_2097_322)"/>
<path d="M795.423 21.9L793.823 21.4L791.523 29.1L784.823 29.3L787.323 21.1L785.723 20.6L783.223 29.2L780.423 29.3L778.723 35.1L781.523 35L779.123 43.1L776.323 43.2V43.1L774.623 48.9L777.423 48.8L775.123 56.3L776.723 56.8L779.023 48.8L785.723 48.6L783.223 57.2L784.823 57.7L787.423 48.7L790.423 48.6L792.123 42.8L789.123 42.9L791.423 34.8L794.423 34.7L796.123 28.9L793.123 29L795.423 21.9ZM787.623 42.9L780.923 43.1L783.223 35L789.923 34.8L787.623 42.9Z" fill="url(#paint21_linear_2097_322)"/>
<path d="M820.323 120.3C821.423 120.2 822.123 119.3 822.023 118.3C821.923 117.3 821.023 116.5 820.023 116.6C819.023 116.7 818.323 117.6 818.323 118.6C818.423 119.6 819.223 120.3 820.323 120.3Z" fill="url(#paint22_linear_2097_322)"/>
<path d="M836.223 118.2C834.623 118.1 833.323 119.3 833.223 120.9C833.223 121.1 833.223 121.3 833.223 121.5C833.223 121.5 832.723 124.9 836.623 124.7C836.623 124.7 838.523 124.6 837.523 126.2C837.523 126.2 834.223 130.3 829.623 126.6C827.323 123.9 826.723 120.1 827.923 116.7C827.923 116.7 828.223 110.1 838.023 104.4C838.023 104.4 839.423 102.2 837.223 103C837.223 103 822.023 109.1 822.723 122C822.723 122 823.423 131.1 832.723 130.4V130.5C832.723 130.5 839.923 130.4 840.623 123.2C840.623 123.1 840.623 117.9 836.223 118.2Z" fill="url(#paint23_linear_2097_322)"/>
<path d="M820.823 125.4C819.723 125.5 819.023 126.4 819.023 127.4C819.023 128.4 820.023 129.2 821.023 129.1C822.023 129 822.723 128.1 822.723 127.1C822.623 126.1 821.823 125.4 820.823 125.4Z" fill="url(#paint24_linear_2097_322)"/>
<path d="M826.723 66.4C827.623 63.6 825.323 61.5 822.923 60.9C822.023 60.8 821.023 60.8 820.123 60.7C819.323 60.9 818.523 61 817.823 61.2C815.823 61.7 814.123 62.9 812.723 64.4C811.623 65.8 811.523 67.9 811.023 69.9C810.423 72.8 809.823 75.6 809.223 78.6C807.223 88.1 805.223 97.6 803.223 107.1C803.223 107.1 803.323 107.1 803.323 107.2C803.723 107.3 804.123 107.3 804.423 107.4L804.323 107.2C806.923 94.9 809.523 82.6 812.123 70.2C816.423 73.9 825.023 71.6 826.723 66.4Z" fill="url(#paint25_linear_2097_322)"/>
<path d="M929.523 71.9L927.823 69.9L926.723 68.4C926.023 67.4 925.523 66.3 925.123 65.1C924.523 63.6 924.123 62.1 924.023 60.5H923.023V98.2C921.823 97.3 920.323 96.9 918.923 97.1C917.423 97.1 916.023 97.5 914.723 98.2C913.323 98.9 912.023 99.9 911.023 101.1C910.123 102.2 909.623 103.6 909.623 105.1C909.523 106.3 910.023 107.5 911.023 108.3C912.023 109.1 913.323 109.5 914.623 109.4C916.223 109.4 917.723 109 919.123 108.3C920.523 107.8 921.823 106.8 922.723 105.6C923.723 104.4 924.223 102.9 924.223 101.4V73.6C924.923 73.6 925.623 73.8 926.223 74C928.323 74.8 930.223 76.1 931.623 77.9C932.723 79 933.523 80.3 934.023 81.8C934.323 82.6 934.523 83.1 934.623 83.5C934.723 83.9 934.823 84.3 934.923 84.6V86.1L934.823 86.9L934.523 88.8C934.323 89.7 934.123 90.6 933.723 91.4L932.523 94.5L931.323 97.4H932.123C933.423 95.3 934.523 93 935.423 90.6C936.023 88.8 936.423 86.9 936.423 85C936.323 81.5 935.123 78.2 932.823 75.5L929.523 71.9Z" fill="url(#paint26_linear_2097_322)"/>
<path d="M922.723 60.5H922.923V60.4L922.723 60.5Z" fill="url(#paint27_linear_2097_322)"/>
<path d="M991.223 112.4C990.823 111.4 990.123 110.6 989.123 110.2C988.123 109.6 986.923 109.3 985.723 109.2C984.523 109.1 983.223 109.2 982.023 109.6C980.923 110 980.023 110.8 979.423 111.8C978.923 112.6 978.723 113.5 979.023 114.4C979.223 114.9 979.423 115.4 979.823 115.8C980.123 116.1 980.423 116.4 980.823 116.6C982.023 117.3 983.423 117.7 984.723 117.7C986.023 117.8 987.423 117.6 988.523 117L974.023 141.1L974.823 141.6L990.723 115.2C991.423 114.4 991.523 113.4 991.223 112.4Z" fill="url(#paint28_linear_2097_322)"/>
<path d="M1004.92 139.7C1004.82 139.3 1004.52 139 1004.12 138.8C1003.82 138.5 1003.42 138.4 1003.02 138.5C1002.62 138.6 1002.22 138.8 1002.02 139.2C1001.72 139.5 1001.62 140 1001.72 140.4H1001.82C1001.92 140.8 1002.12 141.2 1002.52 141.4C1002.92 141.6 1003.32 141.7 1003.72 141.6C1004.12 141.5 1004.52 141.3 1004.72 140.9C1004.92 140.6 1005.02 140.2 1004.92 139.7Z" fill="url(#paint29_linear_2097_322)"/>
<path d="M1002.32 135.4C1002.72 135.3 1003.12 135.1 1003.32 134.7C1003.62 134.4 1003.72 134 1003.62 133.6C1003.52 133.2 1003.32 132.8 1002.92 132.6C1002.62 132.3 1002.22 132.2 1001.82 132.3C1001.42 132.4 1001.12 132.6 1000.82 133C1000.52 133.3 1000.42 133.7 1000.52 134.1C1000.62 134.5 1000.82 134.9 1001.12 135.1C1001.52 135.4 1001.92 135.5 1002.32 135.4Z" fill="url(#paint30_linear_2097_322)"/>
<path d="M998.323 134.8C997.423 133.8 996.323 133.1 995.123 132.6C993.923 132.2 992.623 132.1 991.323 132.3C990.123 132.5 989.023 133 988.023 133.6C987.023 134.3 986.223 135.1 985.723 136.1C985.223 137.1 985.023 138.3 985.223 139.4C985.423 140.3 985.923 141 986.623 141.5C987.423 141.9 988.323 142 989.223 141.9C989.723 141.8 990.223 141.6 990.623 141.2C991.023 140.9 991.323 140.4 991.423 140C991.523 139.6 991.623 139.1 991.523 138.7C991.423 138.1 991.023 137.5 990.523 137.2C989.923 136.9 989.323 136.7 988.623 136.8L987.823 137.1L987.223 137.4L986.623 137.3C986.423 137.2 986.323 137.1 986.323 136.9V136.6C986.523 135.6 987.023 134.8 987.823 134.2C988.623 133.6 989.523 133.2 990.423 133.1C991.323 132.9 992.323 133 993.123 133.5C993.923 134 994.523 134.7 994.923 135.6C995.123 136 995.323 136.5 995.523 136.9L995.923 138.4C996.023 139 996.023 139.5 996.023 140.1L995.923 142C995.823 142.7 995.823 143.3 995.623 143.9C995.423 144.5 995.323 144.9 995.123 145.4C994.723 146.7 994.123 148 993.323 149.2L992.123 150.8C991.823 151.2 991.623 151.4 991.523 151.6L990.823 152.3L987.223 156.1L987.423 156.4L987.723 157L991.623 153.9C992.223 153.3 992.823 152.9 993.123 152.6C993.423 152.3 993.823 151.9 994.123 151.7C995.123 150.8 995.923 149.8 996.723 148.7C997.223 148 997.523 147.5 997.823 147C998.123 146.5 998.423 146 998.623 145.4C999.723 143.3 1000.12 140.9 999.623 138.5C999.823 136.9 999.223 135.7 998.323 134.8Z" fill="url(#paint31_linear_2097_322)"/>
<path d="M971.923 96.6L950.923 109.4L951.023 109.5L950.223 110L955.923 114.4L947.523 119.5L948.423 121.1L966.723 109.9L970.223 107.7L964.423 103.3L972.723 98.2L971.923 96.6ZM965.523 108.6L959.623 112.2L955.423 109L961.323 105.4L965.523 108.6Z" fill="url(#paint32_linear_2097_322)"/>
<path d="M953.523 73.7C955.023 72 955.523 69.6 954.723 67.4V67.3L940.723 35.5L940.123 34.1L937.523 28.2L936.623 26.3L952.723 16.7L953.623 18.6L956.223 24.5L956.823 25.9L967.423 50C965.223 49.1 962.423 49.9 960.623 52.3C958.423 54.9 958.523 58.5 960.723 60.3C962.923 62.1 966.323 61.3 968.523 58.6C970.023 56.9 970.523 54.5 969.723 52.3V52.2L960.523 31.2L976.523 21.6L982.323 34.8C980.123 33.9 977.323 34.7 975.523 37.1C973.323 39.7 973.423 43.3 975.623 45.1C977.823 46.9 981.223 46.1 983.423 43.4C984.923 41.7 985.423 39.3 984.623 37.1V37L977.523 21L974.923 15.1L974.423 13.7L971.823 7.8L971.023 5.90001L968.423 0L967.423 0.600006L951.323 10.2L950.323 10.8L934.223 20.4L933.223 21L935.823 26.9L936.423 28.8L939.023 34.7L939.623 36.1L942.223 42L952.423 65C950.223 64.1 947.423 64.9 945.623 67.3C943.423 69.9 943.523 73.5 945.723 75.3L945.523 75.6C947.823 77.2 951.323 76.4 953.523 73.7ZM973.223 14.4L973.823 15.8L957.723 25.4L957.123 24L973.223 14.4ZM969.823 6.5L970.623 8.40001L954.523 18L953.723 16.1L969.823 6.5Z" fill="url(#paint33_linear_2097_322)"/>
<path d="M877.323 60.3C877.823 57.2 875.423 54.4 872.723 54.8C868.323 55.6 862.523 60.7 864.323 65.9V66C867.623 74.8 871.023 83.6 874.323 92.3C863.223 94.4 857.523 83.9 859.323 72.7V72.6C859.023 72.6 858.723 72.7 858.523 72.8C858.123 75.6 858.023 78.5 858.023 81.4C858.223 90.2 865.023 93.5 870.123 96C871.723 96.8 873.623 97.5 874.923 98.7C876.623 100.4 878.023 102.4 878.923 104.6C879.323 104.5 879.723 104.3 880.123 104.2C875.723 92.4 871.223 80.6 866.823 68.7C872.123 70.4 876.823 63.8 877.323 60.3Z" fill="url(#paint34_linear_2097_322)"/>
<path d="M331.223 283.6C331.523 281.6 331.623 279.7 331.623 277.7C331.723 273 330.823 268.4 329.023 264.1C328.123 262 327.023 260 325.723 258.1L321.223 251.7C318.223 248 314.923 244.6 311.323 241.5C308.023 238.8 305.123 235.7 302.623 232.3C301.523 230.6 300.723 228.8 300.123 226.9C299.623 224.8 299.423 222.7 299.323 220.6H295.823L295.923 321.9C293.323 320 290.123 319 286.823 319.1C282.623 319.2 278.523 320.4 274.923 322.5C271.023 324.5 267.623 327.3 264.823 330.8C262.323 333.8 261.023 337.6 260.923 341.5C260.823 343.2 261.323 344.8 262.123 346.2C262.723 347.5 263.723 348.6 264.923 349.3C267.723 351 270.923 351.9 274.123 351.8C278.123 351.7 282.123 350.8 285.823 349.1C287.823 348 288.823 347.4 288.923 347.3C289.823 346.8 290.623 346.2 291.423 345.6C293.023 344.4 294.423 343 295.523 341.4C298.023 338.4 299.423 334.6 299.523 330.7L299.423 272.9L302.323 274.3L306.623 277.1L309.123 278.9L310.623 279.7C323.823 286.7 330.423 295.7 330.423 306.9C330.423 312.9 328.423 320 324.423 327.9H326.423C328.723 324.7 330.423 321 331.323 317.1C331.523 316.3 331.823 315.2 332.223 313.8C332.423 312.9 332.523 312 332.523 311.1L332.923 304.7C332.923 298 331.823 293.2 329.523 290.2C330.323 288 330.823 285.8 331.223 283.6ZM327.923 286.8C326.423 283.9 322.923 279.8 317.423 274.6C312.623 270.2 308.323 265.4 304.523 260.1C301.423 255.7 299.723 250.5 299.923 245.1L304.123 247.5L310.123 251.5C313.323 253.8 316.323 256.4 318.923 259.3C321.823 262 324.123 265.4 325.623 269.1C326.623 271 327.323 273 327.823 275C328.223 277.1 328.423 279.2 328.423 281.3L327.923 286.8Z" fill="url(#paint35_linear_2097_322)"/>
<path d="M163.823 190.9C165.023 191.4 166.323 191.7 167.623 191.7C171.523 191.9 175.523 191 179.023 189.4C183.023 187.6 186.023 185.4 187.823 182.5L187.923 182.4L182.223 262.7L184.923 262.9L191.123 175.7C191.323 172.3 190.423 169.8 188.423 168C186.023 166.2 183.223 165.2 180.223 165.1C176.823 164.9 173.423 165.5 170.223 166.8C166.923 168 163.923 169.9 161.423 172.3C159.223 174.7 157.823 177.8 157.623 181.1C157.323 183.8 158.323 186.4 160.123 188.3C161.223 189.5 162.423 190.3 163.823 190.9Z" fill="url(#paint36_linear_2097_322)"/>
<path d="M380.323 143.8L389.423 233.2L391.823 232.9C391.323 228.5 392.023 224 393.923 219.9C396.323 214.9 399.123 210.1 402.423 205.7C405.623 201.2 408.323 196.5 410.723 191.5C412.523 187.4 413.223 182.9 412.723 178.5C412.523 176.8 412.223 175.1 411.823 173.4C411.523 171.9 411.023 170.4 410.523 169L408.623 164.1L406.423 159.6C404.823 156.6 403.023 153.8 401.023 151L399.423 151.9C401.923 156 404.223 160.2 406.123 164.6C407.623 168.2 408.623 171.9 408.923 175.8C409.323 179.8 408.623 183.8 407.123 187.5C405.523 191.5 403.123 195.2 399.923 198.1C396.823 201.2 393.023 203.4 388.823 204.5L383.323 150.8C385.823 152 388.723 152.5 391.523 152.2C394.923 151.7 398.223 150.4 401.123 148.5C404.223 146.6 406.823 143.9 408.623 140.8C410.523 137.7 411.323 134.9 411.123 132.3C410.523 126.2 406.823 123.5 399.923 124.1C399.123 124.2 398.323 124.3 397.423 124.5C396.923 124.6 396.023 124.9 395.023 125.2L390.323 127.4C387.223 129.3 384.523 131.8 382.523 134.7C380.623 137.4 379.823 140.7 380.223 144L380.323 143.8Z" fill="url(#paint37_linear_2097_322)"/>
<path d="M235.623 214.3C232.123 213 228.323 212.5 224.623 213C221.023 213.5 217.523 214.9 214.623 217C211.923 219.1 209.623 221.7 207.923 224.7C206.223 227.6 205.323 230.9 205.123 234.2C205.023 237.5 206.023 240.7 208.123 243.3C209.623 245.3 211.923 246.6 214.423 246.8C216.923 246.9 219.523 246.1 221.523 244.5C222.723 243.6 223.723 242.5 224.323 241.1C224.923 239.8 225.123 238.4 224.923 237C224.723 235.8 224.323 234.6 223.523 233.6C222.423 232.2 220.823 231.3 219.023 231.1C217.123 230.9 215.323 231.5 213.823 232.6L212.223 234.3L211.123 235.6L209.523 236.1C209.023 236.2 208.623 236 208.323 235.6L207.823 234.7C207.023 232 207.323 229.2 208.623 226.7C210.023 224.3 211.823 222.2 214.023 220.5C216.123 218.8 218.723 218 221.323 218.2C223.923 218.5 226.323 219.5 228.423 221.1C229.623 221.9 230.723 222.8 231.723 223.8L234.523 227.1C235.423 228.4 236.223 229.7 237.023 231.1L239.323 235.9C239.923 237.8 240.523 239.6 240.923 241.1C241.323 242.5 241.723 244 241.823 245.5C242.523 249.4 242.623 253.4 242.123 257.4L241.323 263C241.123 264.1 240.923 265 240.823 265.5C240.623 266.4 240.323 267.2 240.023 268L235.723 282.2L235.923 282L237.423 283.1L243.223 270.1C244.123 268 244.923 266.3 245.423 264.8C245.923 263.3 246.423 262.1 246.823 260.9C248.023 257.3 249.023 253.6 249.623 249.9C249.923 247.8 250.123 245.9 250.323 244.3C250.423 242.7 250.523 241 250.523 239.1C250.623 232.3 248.523 225.7 244.423 220.4C242.023 217.8 239.023 215.6 235.623 214.3Z" fill="url(#paint38_linear_2097_322)"/>
<path d="M240.423 210.8C241.123 211.8 242.223 212.4 243.423 212.5C244.623 212.7 245.823 212.5 246.723 211.7C247.723 211 248.323 209.9 248.423 208.7C248.623 207.5 248.323 206.3 247.623 205.4C246.123 203.5 243.423 203.1 241.423 204.5C239.423 206 239.023 208.7 240.423 210.8Z" fill="url(#paint39_linear_2097_322)"/>
<path d="M255.623 218.1C254.523 217.9 253.323 218.1 252.423 218.8C251.523 219.5 250.823 220.6 250.723 221.8C250.523 223 250.823 224.2 251.523 225.2L251.623 225.3C252.323 226.3 253.523 226.9 254.723 227.1C255.923 227.2 257.123 226.8 258.023 226.1C258.923 225.4 259.523 224.3 259.723 223.2C259.823 222 259.523 220.8 258.723 219.8C258.023 218.8 256.923 218.2 255.623 218.1Z" fill="url(#paint40_linear_2097_322)"/>
<path d="M339.123 155.4C335.023 133.2 330.023 106 326.423 86.8C326.223 86.8 326.023 86.9 325.823 86.9C307.123 94.8 288.323 102.5 269.423 110.2C274.323 136.7 279.323 163.4 284.223 189.9C273.123 184.5 260.123 199.4 263.023 209.9C265.523 219.3 276.623 216.3 281.623 211.9C284.523 209.3 287.223 205.3 287.923 201.5C288.723 196.2 286.323 188 284.923 180.5C281.223 160.6 276.423 136.1 273.823 118.8C291.523 112.1 309.223 103.9 326.123 97.6C330.423 120.8 334.723 144 339.023 167.2C327.723 162.3 315.223 176.3 317.823 187.2C318.923 191 322.423 193.7 326.423 193.9C335.523 193.9 341.723 184.8 342.623 178C343.323 173.1 340.823 163.2 339.323 155.3L339.123 155.4Z" fill="url(#paint41_linear_2097_322)"/>
<path d="M195.523 290.9L192.623 290.1L188.523 304.1L176.523 304.5L180.923 289.7L178.023 288.8L173.323 304.6L168.223 304.8L165.123 315.4L170.223 315.2L165.923 330L160.923 330.2L157.823 340.8L162.923 340.6L158.923 354.2L161.823 355L166.123 340.4L178.123 340L173.523 355.4L176.423 356.2L181.323 339.7L186.823 339.5L189.923 328.9L184.423 329.1L188.723 314.4L194.223 314.2L197.323 303.6L191.923 303.8L195.523 290.9ZM181.123 329.6L169.123 330L173.423 315.2L185.423 314.8L181.123 329.6Z" fill="url(#paint42_linear_2097_322)"/>
<path d="M547.423 256L540.223 250.2L536.223 246.9L533.523 244.4C531.923 242.7 530.423 240.7 529.323 238.7C527.723 236 526.423 233.1 525.523 230.1L523.223 230.6L523.323 230.7L536.623 303.6C534.623 302.5 531.823 302.2 528.223 302.8C525.423 303.4 522.723 304.6 520.523 306.4C518.023 308.2 516.023 310.6 514.523 313.3C513.223 315.8 512.723 318.8 513.323 321.6C513.623 324 515.023 326.1 517.223 327.1C519.423 328.1 521.923 328.4 524.423 327.9C527.423 327.2 530.323 325.9 532.823 324.1C535.323 322.5 537.423 320.2 538.723 317.5C540.223 314.9 540.723 311.8 540.123 308.8L530.323 255.3C531.623 255.1 532.923 255.1 534.223 255.3C535.623 255.5 537.123 255.8 538.423 256.3C541.223 257.3 543.823 258.8 546.023 260.7C548.423 262.5 550.523 264.8 552.023 267.4C552.623 268.4 553.223 269.4 553.723 270.5C554.023 271.2 554.323 271.9 554.523 272.6C554.723 273.5 554.823 274.5 555.023 275.3L555.223 277L555.423 280.8C555.323 282.6 555.123 284.4 554.823 286.2L553.623 292.6L552.223 298.6L553.623 298.3C555.423 293.7 556.823 289 557.623 284.2C558.223 280.5 558.223 276.7 557.623 273C556.323 266.7 553.123 261.1 547.423 256Z" fill="url(#paint43_linear_2097_322)"/>
<path d="M444.623 143.4C447.123 143.8 449.723 143.6 452.123 142.8C454.723 142.1 457.123 140.7 459.123 139C460.923 137.4 462.223 135.3 462.623 132.9L468.723 95.9L476.423 103C478.123 104.6 479.623 106.4 481.023 108.3C482.423 110 483.523 111.9 484.123 114C484.723 116.2 484.823 118.5 484.423 120.8C483.823 124.4 481.923 128.6 478.623 133.4L479.923 133.6C481.723 131.7 483.123 129.5 484.123 127.1C484.423 126.4 484.723 125.7 485.023 125C485.223 124.5 485.423 123.9 485.523 123.4L486.323 119.5C487.023 115.7 486.723 113 485.723 111.1C486.623 109.2 487.223 107.1 487.623 105C488.023 102.8 488.023 100.5 487.723 98.3C488.723 96.1 489.423 93.7 489.923 91.3C491.123 84.4 489.323 77.3 485.023 71.7L479.223 64C478.523 63.2 477.923 62.4 477.423 61.5L476.223 58.9C475.923 57.9 475.723 56.9 475.623 55.8C475.523 54.6 475.623 53.4 475.823 52.2L473.723 51.8L461.423 126.9L461.323 127.2C459.723 125.6 457.623 124.6 455.323 124.3C452.923 123.9 450.423 124.2 448.123 125C445.523 125.7 443.023 127 441.023 128.8C439.123 130.4 437.923 132.5 437.423 134.9C436.923 136.9 437.523 139.1 438.823 140.6C440.423 142.1 442.423 143.1 444.623 143.4ZM473.623 67.3H473.723C477.323 70.6 479.823 73.2 481.523 75.1C482.523 76.2 483.523 77.4 484.223 78.7C484.823 79.6 485.323 80.2 485.423 80.6C485.623 81 485.923 81.8 486.423 83C487.723 86 488.123 89.3 487.523 92.5L486.823 95.2C486.123 92.7 485.023 90.3 483.723 88.1L481.423 84.9L478.523 80.9C476.723 78.7 475.223 76.3 474.123 73.7C473.523 71.6 473.223 69.4 473.623 67.3ZM471.123 81.4C481.923 89.9 486.523 98.2 485.223 106.4L484.823 108.3C483.923 106.1 482.723 104 481.223 102.2L476.123 95.3C474.523 93.3 473.223 91 472.123 88.7C471.623 87.5 471.223 86.2 471.023 84.9C470.923 83.8 470.923 82.6 471.123 81.4Z" fill="url(#paint44_linear_2097_322)"/>
<path d="M555.723 88.2L558.023 89.1L559.323 89.4C571.123 92.3 578.223 98.2 580.523 107.1C581.723 111.9 581.523 117.8 579.923 125L581.523 124.6C582.723 121.6 583.423 118.4 583.323 115.1C583.323 114.4 583.323 113.5 583.423 112.3C583.323 111.6 583.223 110.9 583.023 110.1L582.123 104.9C580.823 99.6 578.923 96.1 576.623 94.1C576.723 92.2 576.623 90.4 576.423 88.6C576.223 87 575.923 85.4 575.623 83.8C574.823 80 573.123 76.5 570.823 73.5C569.723 72 568.523 70.6 567.023 69.4L562.123 65.2C559.023 62.9 555.723 60.9 552.223 59.1C549.123 57.6 546.123 55.7 543.523 53.5C542.323 52.4 541.323 51.1 540.523 49.7C539.623 48.2 539.023 46.6 538.623 44.9L535.923 45.6L556.123 126.1C553.623 125 550.823 124.9 548.223 125.6C544.923 126.5 541.923 128.2 539.423 130.6C536.823 133 534.623 136 533.123 139.3C531.723 142.2 531.423 145.5 532.223 148.6C532.523 149.9 533.123 151.1 534.123 152.1C534.823 153 535.823 153.7 536.923 154C539.423 154.9 542.223 154.9 544.723 154.2C547.923 153.4 550.923 151.9 553.523 149.8C554.823 148.6 555.523 147.9 555.623 147.8C556.223 147.2 556.823 146.6 557.323 145.9C560.323 142.1 561.623 137.2 560.723 132.4L549.123 86.5L551.723 87.1L555.723 88.2ZM544.123 63.9L544.323 63.8L548.123 64.8L553.623 66.9C556.623 68.1 559.523 69.5 562.223 71.3C565.123 72.8 567.623 75 569.423 77.7C570.623 79 571.523 80.4 572.323 81.9C573.023 83.5 573.623 85.2 574.023 86.9L574.723 91.4C572.923 89.4 569.323 86.9 563.923 83.8C559.323 81.2 554.923 78.2 550.823 74.9C547.523 72.1 545.223 68.2 544.123 63.9Z" fill="url(#paint45_linear_2097_322)"/>
<path d="M636.523 140C642.623 134.3 646.123 128 647.023 121.4C647.423 119.1 647.423 116.7 647.023 114.4C648.623 111.9 649.623 109 650.023 106C650.523 101.2 649.823 96.4 648.023 92L647.023 92.8C648.323 96.7 648.723 100.8 648.223 104.8C647.623 108.8 646.223 111.9 643.923 114C640.923 116.6 635.023 119.8 626.123 123.6L630.523 90.8C632.323 92.1 634.423 93 636.623 93.3C639.323 93.6 642.123 93.3 644.623 92.3C647.223 91.4 649.623 89.9 651.623 87.9C653.223 86.3 654.323 84.2 654.723 81.9C654.823 77.4 652.423 74.9 647.523 74.2C644.923 73.9 642.323 74.1 639.923 74.9C637.223 75.7 634.823 77 632.723 78.9C630.923 80.6 629.723 82.9 629.323 85.4L620.023 153.9L622.123 154.2C622.523 152.3 623.423 150.5 624.723 148.9C626.523 147.2 628.523 145.7 630.623 144.4L634.123 142.1L636.523 140ZM623.823 141.2L624.123 141.1C625.023 137.9 626.423 134.9 628.323 132.2C630.023 130 632.023 128.1 634.223 126.4L640.923 121.5C641.523 121.2 642.123 120.8 642.623 120.3C643.123 119.9 643.623 119.4 644.023 118.9C644.523 118.5 644.923 118.1 645.323 117.6C645.623 117.2 646.023 116.7 646.223 116.2L645.923 118.7C645.823 120.1 645.423 121.4 645.023 122.7C644.523 123.9 644.023 124.8 643.723 125.7C643.423 126.6 642.923 127.1 642.823 127.6C640.823 130.7 638.323 133.5 635.423 135.7C631.923 138.1 628.023 140 623.823 141.2Z" fill="url(#paint46_linear_2097_322)"/>
<path d="M484.623 242.4C478.923 243.9 474.723 248 473.623 252.6L473.523 252.8L455.823 333L455.023 336.5L451.723 351.5L450.723 356.3L406.823 352.2L407.823 347.4L411.123 332.4L411.923 328.9L415.223 313.9L425.323 268.3C428.023 273 434.723 275.4 441.423 273.5C449.223 271.4 454.123 264.6 452.423 258.3C450.723 252 443.023 248.4 435.323 250.6C429.623 252.1 425.323 256.2 424.323 260.8V261L412.523 313.6L368.623 309.3L375.923 276.1C378.623 280.8 385.323 283.1 392.023 281.3C399.823 279.2 404.723 272.4 402.923 266.1C401.123 259.8 393.523 256.2 385.823 258.4C380.123 259.9 375.923 264 374.823 268.6L374.723 268.8L362.523 324.1L361.723 327.6L358.423 342.6L357.423 347.4L354.123 362.4L356.823 362.7L400.723 366.7L403.423 367L447.323 371.1L450.023 371.4L453.323 356.5L454.323 351.7L457.623 336.7L458.423 333.2L461.723 318.2L474.623 260.1C477.323 264.8 484.023 267.2 490.723 265.3C498.623 263.3 503.423 256.5 501.723 250.2C500.023 243.7 492.323 240.2 484.623 242.4ZM365.123 324.4L409.023 328.5L408.223 332L364.323 327.9L365.123 324.4ZM403.923 351.6L360.023 347.5L361.023 342.7L404.923 346.8L403.923 351.6Z" fill="url(#paint47_linear_2097_322)"/>
<path d="M602.223 244.1C601.223 239.4 599.223 234.9 596.423 231C595.323 229.6 594.223 228.1 593.123 226.7C592.523 226.4 592.423 226.7 591.823 227L594.323 230.7C596.023 233.2 597.523 235.9 598.623 238.8C602.623 250.3 596.123 260.2 587.423 263.3H587.323C585.223 251.3 583.223 239.2 581.023 227.2C588.023 230.6 595.023 224.1 597.723 219.6C599.323 216.9 599.823 212.8 597.523 210.3C596.123 208.7 593.723 208.6 591.523 208.2C590.323 208.5 589.123 208.9 587.823 209.2C583.823 210.9 580.023 214.3 578.623 218.5C577.423 222.3 579.923 232.3 580.823 236.7C583.423 252.1 586.123 267.6 588.823 282.9C589.423 282.8 590.023 282.7 590.723 282.7C590.723 280.8 590.623 278.9 590.623 277.1C590.723 275 591.223 272.9 591.923 270.9C594.923 263.7 604.723 255.9 602.423 244.1H602.223Z" fill="url(#paint48_linear_2097_322)"/>
<path d="M679.723 172.6C687.623 146.9 667.523 138.1 666.123 136.5C665.323 135.6 664.823 134.4 664.723 133.2V133L662.423 132.8L655.423 209.2C653.023 207 648.623 206 643.923 206.7C637.123 207.7 632.223 212 632.923 216.1C633.623 220.2 639.523 222.9 646.323 221.8C652.823 220.8 657.723 216.8 657.423 212.8L661.123 172.6C662.523 173.2 663.923 174 665.123 174.9C674.423 181.3 677.823 187.4 673.623 205.4C673.523 205.9 673.923 206 674.123 205.5C676.723 198.7 677.723 193 677.423 188.2C679.223 183.4 680.023 178 679.723 172.6ZM676.923 185.6C675.023 172.2 664.323 167.1 663.323 165.9H663.423C662.623 165 662.123 163.8 662.023 162.6L662.523 157.5C663.923 158.1 665.223 158.9 666.523 159.8C674.923 165.8 679.323 171.4 676.923 185.6ZM679.323 169.5C676.723 156.9 665.823 151.9 664.923 150.8C664.123 149.9 663.623 148.7 663.523 147.5L663.923 143.6C665.323 144.2 666.623 145 667.923 145.9C676.123 151.4 680.823 156.7 679.323 169.5Z" fill="url(#paint49_linear_2097_322)"/>
<defs>
<linearGradient id="paint0_linear_2097_322" x1="1101.62" y1="-0.40008" x2="0.623002" y2="371.6" gradientUnits="userSpaceOnUse">
<stop stop-color="#0D0D0D" stop-opacity="0.7"/>
<stop offset="0.19" stop-color="#373435"/>
<stop offset="0.71" stop-color="#1F1D1E" stop-opacity="0.478947"/>
<stop offset="1" stop-color="#0D0D0D" stop-opacity="0.1"/>
</linearGradient>
<linearGradient id="paint1_linear_2097_322" x1="1101.62" y1="-0.40008" x2="0.623002" y2="371.6" gradientUnits="userSpaceOnUse">
<stop stop-color="#0D0D0D" stop-opacity="0.7"/>
<stop offset="0.19" stop-color="#373435"/>
<stop offset="0.71" stop-color="#1F1D1E" stop-opacity="0.478947"/>
<stop offset="1" stop-color="#0D0D0D" stop-opacity="0.1"/>
</linearGradient>
<linearGradient id="paint2_linear_2097_322" x1="1101.62" y1="-0.40008" x2="0.623002" y2="371.6" gradientUnits="userSpaceOnUse">
<stop stop-color="#0D0D0D" stop-opacity="0.7"/>
<stop offset="0.19" stop-color="#373435"/>
<stop offset="0.71" stop-color="#1F1D1E" stop-opacity="0.478947"/>
<stop offset="1" stop-color="#0D0D0D" stop-opacity="0.1"/>
</linearGradient>
<linearGradient id="paint3_linear_2097_322" x1="1101.62" y1="-0.40008" x2="0.623002" y2="371.6" gradientUnits="userSpaceOnUse">
<stop stop-color="#0D0D0D" stop-opacity="0.7"/>
<stop offset="0.19" stop-color="#373435"/>
<stop offset="0.71" stop-color="#1F1D1E" stop-opacity="0.478947"/>
<stop offset="1" stop-color="#0D0D0D" stop-opacity="0.1"/>
</linearGradient>
<linearGradient id="paint4_linear_2097_322" x1="1101.62" y1="-0.40008" x2="0.623002" y2="371.6" gradientUnits="userSpaceOnUse">
<stop stop-color="#0D0D0D" stop-opacity="0.7"/>
<stop offset="0.19" stop-color="#373435"/>
<stop offset="0.71" stop-color="#1F1D1E" stop-opacity="0.478947"/>
<stop offset="1" stop-color="#0D0D0D" stop-opacity="0.1"/>
</linearGradient>
<linearGradient id="paint5_linear_2097_322" x1="1101.62" y1="-0.40008" x2="0.623002" y2="371.6" gradientUnits="userSpaceOnUse">
<stop stop-color="#0D0D0D" stop-opacity="0.7"/>
<stop offset="0.19" stop-color="#373435"/>
<stop offset="0.71" stop-color="#1F1D1E" stop-opacity="0.478947"/>
<stop offset="1" stop-color="#0D0D0D" stop-opacity="0.1"/>
</linearGradient>
<linearGradient id="paint6_linear_2097_322" x1="1101.62" y1="-0.40008" x2="0.623002" y2="371.6" gradientUnits="userSpaceOnUse">
<stop stop-color="#0D0D0D" stop-opacity="0.7"/>
<stop offset="0.19" stop-color="#373435"/>
<stop offset="0.71" stop-color="#1F1D1E" stop-opacity="0.478947"/>
<stop offset="1" stop-color="#0D0D0D" stop-opacity="0.1"/>
</linearGradient>
<linearGradient id="paint7_linear_2097_322" x1="1101.62" y1="-0.40008" x2="0.623002" y2="371.6" gradientUnits="userSpaceOnUse">
<stop stop-color="#0D0D0D" stop-opacity="0.7"/>
<stop offset="0.19" stop-color="#373435"/>
<stop offset="0.71" stop-color="#1F1D1E" stop-opacity="0.478947"/>
<stop offset="1" stop-color="#0D0D0D" stop-opacity="0.1"/>
</linearGradient>
<linearGradient id="paint8_linear_2097_322" x1="1101.62" y1="-0.40008" x2="0.623002" y2="371.6" gradientUnits="userSpaceOnUse">
<stop stop-color="#0D0D0D" stop-opacity="0.7"/>
<stop offset="0.19" stop-color="#373435"/>
<stop offset="0.71" stop-color="#1F1D1E" stop-opacity="0.478947"/>
<stop offset="1" stop-color="#0D0D0D" stop-opacity="0.1"/>
</linearGradient>
<linearGradient id="paint9_linear_2097_322" x1="1101.62" y1="-0.40008" x2="0.623002" y2="371.6" gradientUnits="userSpaceOnUse">
<stop stop-color="#0D0D0D" stop-opacity="0.7"/>
<stop offset="0.19" stop-color="#373435"/>
<stop offset="0.71" stop-color="#1F1D1E" stop-opacity="0.478947"/>
<stop offset="1" stop-color="#0D0D0D" stop-opacity="0.1"/>
</linearGradient>
<linearGradient id="paint10_linear_2097_322" x1="1101.62" y1="-0.40008" x2="0.623002" y2="371.6" gradientUnits="userSpaceOnUse">
<stop stop-color="#0D0D0D" stop-opacity="0.7"/>
<stop offset="0.19" stop-color="#373435"/>
<stop offset="0.71" stop-color="#1F1D1E" stop-opacity="0.478947"/>
<stop offset="1" stop-color="#0D0D0D" stop-opacity="0.1"/>
</linearGradient>
<linearGradient id="paint11_linear_2097_322" x1="1101.62" y1="-0.40008" x2="0.623002" y2="371.6" gradientUnits="userSpaceOnUse">
<stop stop-color="#0D0D0D" stop-opacity="0.7"/>
<stop offset="0.19" stop-color="#373435"/>
<stop offset="0.71" stop-color="#1F1D1E" stop-opacity="0.478947"/>
<stop offset="1" stop-color="#0D0D0D" stop-opacity="0.1"/>
</linearGradient>
<linearGradient id="paint12_linear_2097_322" x1="1101.62" y1="-0.40008" x2="0.623002" y2="371.6" gradientUnits="userSpaceOnUse">
<stop stop-color="#0D0D0D" stop-opacity="0.7"/>
<stop offset="0.19" stop-color="#373435"/>
<stop offset="0.71" stop-color="#1F1D1E" stop-opacity="0.478947"/>
<stop offset="1" stop-color="#0D0D0D" stop-opacity="0.1"/>
</linearGradient>
<linearGradient id="paint13_linear_2097_322" x1="1101.62" y1="-0.40008" x2="0.623002" y2="371.6" gradientUnits="userSpaceOnUse">
<stop stop-color="#0D0D0D" stop-opacity="0.7"/>
<stop offset="0.19" stop-color="#373435"/>
<stop offset="0.71" stop-color="#1F1D1E" stop-opacity="0.478947"/>
<stop offset="1" stop-color="#0D0D0D" stop-opacity="0.1"/>
</linearGradient>
<linearGradient id="paint14_linear_2097_322" x1="1101.62" y1="-0.40008" x2="0.623002" y2="371.6" gradientUnits="userSpaceOnUse">
<stop stop-color="#0D0D0D" stop-opacity="0.7"/>
<stop offset="0.19" stop-color="#373435"/>
<stop offset="0.71" stop-color="#1F1D1E" stop-opacity="0.478947"/>
<stop offset="1" stop-color="#0D0D0D" stop-opacity="0.1"/>
</linearGradient>
<linearGradient id="paint15_linear_2097_322" x1="1101.62" y1="-0.40008" x2="0.623002" y2="371.6" gradientUnits="userSpaceOnUse">
<stop stop-color="#0D0D0D" stop-opacity="0.7"/>
<stop offset="0.19" stop-color="#373435"/>
<stop offset="0.71" stop-color="#1F1D1E" stop-opacity="0.478947"/>
<stop offset="1" stop-color="#0D0D0D" stop-opacity="0.1"/>
</linearGradient>
<linearGradient id="paint16_linear_2097_322" x1="1101.62" y1="-0.40008" x2="0.623002" y2="371.6" gradientUnits="userSpaceOnUse">
<stop stop-color="#0D0D0D" stop-opacity="0.7"/>
<stop offset="0.19" stop-color="#373435"/>
<stop offset="0.71" stop-color="#1F1D1E" stop-opacity="0.478947"/>
<stop offset="1" stop-color="#0D0D0D" stop-opacity="0.1"/>
</linearGradient>
<linearGradient id="paint17_linear_2097_322" x1="1101.62" y1="-0.40008" x2="0.623002" y2="371.6" gradientUnits="userSpaceOnUse">
<stop stop-color="#0D0D0D" stop-opacity="0.7"/>
<stop offset="0.19" stop-color="#373435"/>
<stop offset="0.71" stop-color="#1F1D1E" stop-opacity="0.478947"/>
<stop offset="1" stop-color="#0D0D0D" stop-opacity="0.1"/>
</linearGradient>
<linearGradient id="paint18_linear_2097_322" x1="1101.62" y1="-0.40008" x2="0.623002" y2="371.6" gradientUnits="userSpaceOnUse">
<stop stop-color="#0D0D0D" stop-opacity="0.7"/>
<stop offset="0.19" stop-color="#373435"/>
<stop offset="0.71" stop-color="#1F1D1E" stop-opacity="0.478947"/>
<stop offset="1" stop-color="#0D0D0D" stop-opacity="0.1"/>
</linearGradient>
<linearGradient id="paint19_linear_2097_322" x1="1101.62" y1="-0.40008" x2="0.623002" y2="371.6" gradientUnits="userSpaceOnUse">
<stop stop-color="#0D0D0D" stop-opacity="0.7"/>
<stop offset="0.19" stop-color="#373435"/>
<stop offset="0.71" stop-color="#1F1D1E" stop-opacity="0.478947"/>
<stop offset="1" stop-color="#0D0D0D" stop-opacity="0.1"/>
</linearGradient>
<linearGradient id="paint20_linear_2097_322" x1="1101.62" y1="-0.40008" x2="0.623002" y2="371.6" gradientUnits="userSpaceOnUse">
<stop stop-color="#0D0D0D" stop-opacity="0.7"/>
<stop offset="0.19" stop-color="#373435"/>
<stop offset="0.71" stop-color="#1F1D1E" stop-opacity="0.478947"/>
<stop offset="1" stop-color="#0D0D0D" stop-opacity="0.1"/>
</linearGradient>
<linearGradient id="paint21_linear_2097_322" x1="1101.62" y1="-0.40008" x2="0.623002" y2="371.6" gradientUnits="userSpaceOnUse">
<stop stop-color="#0D0D0D" stop-opacity="0.7"/>
<stop offset="0.19" stop-color="#373435"/>
<stop offset="0.71" stop-color="#1F1D1E" stop-opacity="0.478947"/>
<stop offset="1" stop-color="#0D0D0D" stop-opacity="0.1"/>
</linearGradient>
<linearGradient id="paint22_linear_2097_322" x1="1101.62" y1="-0.40008" x2="0.623002" y2="371.6" gradientUnits="userSpaceOnUse">
<stop stop-color="#0D0D0D" stop-opacity="0.7"/>
<stop offset="0.19" stop-color="#373435"/>
<stop offset="0.71" stop-color="#1F1D1E" stop-opacity="0.478947"/>
<stop offset="1" stop-color="#0D0D0D" stop-opacity="0.1"/>
</linearGradient>
<linearGradient id="paint23_linear_2097_322" x1="1101.62" y1="-0.40008" x2="0.623002" y2="371.6" gradientUnits="userSpaceOnUse">
<stop stop-color="#0D0D0D" stop-opacity="0.7"/>
<stop offset="0.19" stop-color="#373435"/>
<stop offset="0.71" stop-color="#1F1D1E" stop-opacity="0.478947"/>
<stop offset="1" stop-color="#0D0D0D" stop-opacity="0.1"/>
</linearGradient>
<linearGradient id="paint24_linear_2097_322" x1="1101.62" y1="-0.40008" x2="0.623002" y2="371.6" gradientUnits="userSpaceOnUse">
<stop stop-color="#0D0D0D" stop-opacity="0.7"/>
<stop offset="0.19" stop-color="#373435"/>
<stop offset="0.71" stop-color="#1F1D1E" stop-opacity="0.478947"/>
<stop offset="1" stop-color="#0D0D0D" stop-opacity="0.1"/>
</linearGradient>
<linearGradient id="paint25_linear_2097_322" x1="1101.62" y1="-0.40008" x2="0.623002" y2="371.6" gradientUnits="userSpaceOnUse">
<stop stop-color="#0D0D0D" stop-opacity="0.7"/>
<stop offset="0.19" stop-color="#373435"/>
<stop offset="0.71" stop-color="#1F1D1E" stop-opacity="0.478947"/>
<stop offset="1" stop-color="#0D0D0D" stop-opacity="0.1"/>
</linearGradient>
<linearGradient id="paint26_linear_2097_322" x1="1101.62" y1="-0.40008" x2="0.623002" y2="371.6" gradientUnits="userSpaceOnUse">
<stop stop-color="#0D0D0D" stop-opacity="0.7"/>
<stop offset="0.19" stop-color="#373435"/>
<stop offset="0.71" stop-color="#1F1D1E" stop-opacity="0.478947"/>
<stop offset="1" stop-color="#0D0D0D" stop-opacity="0.1"/>
</linearGradient>
<linearGradient id="paint27_linear_2097_322" x1="1101.62" y1="-0.40008" x2="0.623002" y2="371.6" gradientUnits="userSpaceOnUse">
<stop stop-color="#0D0D0D" stop-opacity="0.7"/>
<stop offset="0.19" stop-color="#373435"/>
<stop offset="0.71" stop-color="#1F1D1E" stop-opacity="0.478947"/>
<stop offset="1" stop-color="#0D0D0D" stop-opacity="0.1"/>
</linearGradient>
<linearGradient id="paint28_linear_2097_322" x1="1101.62" y1="-0.40008" x2="0.623002" y2="371.6" gradientUnits="userSpaceOnUse">
<stop stop-color="#0D0D0D" stop-opacity="0.7"/>
<stop offset="0.19" stop-color="#373435"/>
<stop offset="0.71" stop-color="#1F1D1E" stop-opacity="0.478947"/>
<stop offset="1" stop-color="#0D0D0D" stop-opacity="0.1"/>
</linearGradient>
<linearGradient id="paint29_linear_2097_322" x1="1101.62" y1="-0.40008" x2="0.623002" y2="371.6" gradientUnits="userSpaceOnUse">
<stop stop-color="#0D0D0D" stop-opacity="0.7"/>
<stop offset="0.19" stop-color="#373435"/>
<stop offset="0.71" stop-color="#1F1D1E" stop-opacity="0.478947"/>
<stop offset="1" stop-color="#0D0D0D" stop-opacity="0.1"/>
</linearGradient>
<linearGradient id="paint30_linear_2097_322" x1="1101.62" y1="-0.40008" x2="0.623002" y2="371.6" gradientUnits="userSpaceOnUse">
<stop stop-color="#0D0D0D" stop-opacity="0.7"/>
<stop offset="0.19" stop-color="#373435"/>
<stop offset="0.71" stop-color="#1F1D1E" stop-opacity="0.478947"/>
<stop offset="1" stop-color="#0D0D0D" stop-opacity="0.1"/>
</linearGradient>
<linearGradient id="paint31_linear_2097_322" x1="1101.62" y1="-0.40008" x2="0.623002" y2="371.6" gradientUnits="userSpaceOnUse">
<stop stop-color="#0D0D0D" stop-opacity="0.7"/>
<stop offset="0.19" stop-color="#373435"/>
<stop offset="0.71" stop-color="#1F1D1E" stop-opacity="0.478947"/>
<stop offset="1" stop-color="#0D0D0D" stop-opacity="0.1"/>
</linearGradient>
<linearGradient id="paint32_linear_2097_322" x1="1101.62" y1="-0.40008" x2="0.623002" y2="371.6" gradientUnits="userSpaceOnUse">
<stop stop-color="#0D0D0D" stop-opacity="0.7"/>
<stop offset="0.19" stop-color="#373435"/>
<stop offset="0.71" stop-color="#1F1D1E" stop-opacity="0.478947"/>
<stop offset="1" stop-color="#0D0D0D" stop-opacity="0.1"/>
</linearGradient>
<linearGradient id="paint33_linear_2097_322" x1="1101.62" y1="-0.40008" x2="0.623002" y2="371.6" gradientUnits="userSpaceOnUse">
<stop stop-color="#0D0D0D" stop-opacity="0.7"/>
<stop offset="0.19" stop-color="#373435"/>
<stop offset="0.71" stop-color="#1F1D1E" stop-opacity="0.478947"/>
<stop offset="1" stop-color="#0D0D0D" stop-opacity="0.1"/>
</linearGradient>
<linearGradient id="paint34_linear_2097_322" x1="1101.62" y1="-0.40008" x2="0.623002" y2="371.6" gradientUnits="userSpaceOnUse">
<stop stop-color="#0D0D0D" stop-opacity="0.7"/>
<stop offset="0.19" stop-color="#373435"/>
<stop offset="0.71" stop-color="#1F1D1E" stop-opacity="0.478947"/>
<stop offset="1" stop-color="#0D0D0D" stop-opacity="0.1"/>
</linearGradient>
<linearGradient id="paint35_linear_2097_322" x1="1101.62" y1="-0.40008" x2="0.623002" y2="371.6" gradientUnits="userSpaceOnUse">
<stop stop-color="#0D0D0D" stop-opacity="0.7"/>
<stop offset="0.19" stop-color="#373435"/>
<stop offset="0.71" stop-color="#1F1D1E" stop-opacity="0.478947"/>
<stop offset="1" stop-color="#0D0D0D" stop-opacity="0.1"/>
</linearGradient>
<linearGradient id="paint36_linear_2097_322" x1="1101.62" y1="-0.40008" x2="0.623002" y2="371.6" gradientUnits="userSpaceOnUse">
<stop stop-color="#0D0D0D" stop-opacity="0.7"/>
<stop offset="0.19" stop-color="#373435"/>
<stop offset="0.71" stop-color="#1F1D1E" stop-opacity="0.478947"/>
<stop offset="1" stop-color="#0D0D0D" stop-opacity="0.1"/>
</linearGradient>
<linearGradient id="paint37_linear_2097_322" x1="1101.62" y1="-0.40008" x2="0.623002" y2="371.6" gradientUnits="userSpaceOnUse">
<stop stop-color="#0D0D0D" stop-opacity="0.7"/>
<stop offset="0.19" stop-color="#373435"/>
<stop offset="0.71" stop-color="#1F1D1E" stop-opacity="0.478947"/>
<stop offset="1" stop-color="#0D0D0D" stop-opacity="0.1"/>
</linearGradient>
<linearGradient id="paint38_linear_2097_322" x1="1101.62" y1="-0.40008" x2="0.623002" y2="371.6" gradientUnits="userSpaceOnUse">
<stop stop-color="#0D0D0D" stop-opacity="0.7"/>
<stop offset="0.19" stop-color="#373435"/>
<stop offset="0.71" stop-color="#1F1D1E" stop-opacity="0.478947"/>
<stop offset="1" stop-color="#0D0D0D" stop-opacity="0.1"/>
</linearGradient>
<linearGradient id="paint39_linear_2097_322" x1="1101.62" y1="-0.40008" x2="0.623002" y2="371.6" gradientUnits="userSpaceOnUse">
<stop stop-color="#0D0D0D" stop-opacity="0.7"/>
<stop offset="0.19" stop-color="#373435"/>
<stop offset="0.71" stop-color="#1F1D1E" stop-opacity="0.478947"/>
<stop offset="1" stop-color="#0D0D0D" stop-opacity="0.1"/>
</linearGradient>
<linearGradient id="paint40_linear_2097_322" x1="1101.62" y1="-0.40008" x2="0.623002" y2="371.6" gradientUnits="userSpaceOnUse">
<stop stop-color="#0D0D0D" stop-opacity="0.7"/>
<stop offset="0.19" stop-color="#373435"/>
<stop offset="0.71" stop-color="#1F1D1E" stop-opacity="0.478947"/>
<stop offset="1" stop-color="#0D0D0D" stop-opacity="0.1"/>
</linearGradient>
<linearGradient id="paint41_linear_2097_322" x1="1101.62" y1="-0.40008" x2="0.623002" y2="371.6" gradientUnits="userSpaceOnUse">
<stop stop-color="#0D0D0D" stop-opacity="0.7"/>
<stop offset="0.19" stop-color="#373435"/>
<stop offset="0.71" stop-color="#1F1D1E" stop-opacity="0.478947"/>
<stop offset="1" stop-color="#0D0D0D" stop-opacity="0.1"/>
</linearGradient>
<linearGradient id="paint42_linear_2097_322" x1="1101.62" y1="-0.40008" x2="0.623002" y2="371.6" gradientUnits="userSpaceOnUse">
<stop stop-color="#0D0D0D" stop-opacity="0.7"/>
<stop offset="0.19" stop-color="#373435"/>
<stop offset="0.71" stop-color="#1F1D1E" stop-opacity="0.478947"/>
<stop offset="1" stop-color="#0D0D0D" stop-opacity="0.1"/>
</linearGradient>
<linearGradient id="paint43_linear_2097_322" x1="1101.62" y1="-0.40008" x2="0.623002" y2="371.6" gradientUnits="userSpaceOnUse">
<stop stop-color="#0D0D0D" stop-opacity="0.7"/>
<stop offset="0.19" stop-color="#373435"/>
<stop offset="0.71" stop-color="#1F1D1E" stop-opacity="0.478947"/>
<stop offset="1" stop-color="#0D0D0D" stop-opacity="0.1"/>
</linearGradient>
<linearGradient id="paint44_linear_2097_322" x1="1101.62" y1="-0.40008" x2="0.623002" y2="371.6" gradientUnits="userSpaceOnUse">
<stop stop-color="#0D0D0D" stop-opacity="0.7"/>
<stop offset="0.19" stop-color="#373435"/>
<stop offset="0.71" stop-color="#1F1D1E" stop-opacity="0.478947"/>
<stop offset="1" stop-color="#0D0D0D" stop-opacity="0.1"/>
</linearGradient>
<linearGradient id="paint45_linear_2097_322" x1="1101.62" y1="-0.40008" x2="0.623002" y2="371.6" gradientUnits="userSpaceOnUse">
<stop stop-color="#0D0D0D" stop-opacity="0.7"/>
<stop offset="0.19" stop-color="#373435"/>
<stop offset="0.71" stop-color="#1F1D1E" stop-opacity="0.478947"/>
<stop offset="1" stop-color="#0D0D0D" stop-opacity="0.1"/>
</linearGradient>
<linearGradient id="paint46_linear_2097_322" x1="1101.62" y1="-0.40008" x2="0.623002" y2="371.6" gradientUnits="userSpaceOnUse">
<stop stop-color="#0D0D0D" stop-opacity="0.7"/>
<stop offset="0.19" stop-color="#373435"/>
<stop offset="0.71" stop-color="#1F1D1E" stop-opacity="0.478947"/>
<stop offset="1" stop-color="#0D0D0D" stop-opacity="0.1"/>
</linearGradient>
<linearGradient id="paint47_linear_2097_322" x1="1101.62" y1="-0.40008" x2="0.623002" y2="371.6" gradientUnits="userSpaceOnUse">
<stop stop-color="#0D0D0D" stop-opacity="0.7"/>
<stop offset="0.19" stop-color="#373435"/>
<stop offset="0.71" stop-color="#1F1D1E" stop-opacity="0.478947"/>
<stop offset="1" stop-color="#0D0D0D" stop-opacity="0.1"/>
</linearGradient>
<linearGradient id="paint48_linear_2097_322" x1="1101.62" y1="-0.40008" x2="0.623002" y2="371.6" gradientUnits="userSpaceOnUse">
<stop stop-color="#0D0D0D" stop-opacity="0.7"/>
<stop offset="0.19" stop-color="#373435"/>
<stop offset="0.71" stop-color="#1F1D1E" stop-opacity="0.478947"/>
<stop offset="1" stop-color="#0D0D0D" stop-opacity="0.1"/>
</linearGradient>
<linearGradient id="paint49_linear_2097_322" x1="1101.62" y1="-0.40008" x2="0.623002" y2="371.6" gradientUnits="userSpaceOnUse">
<stop stop-color="#0D0D0D" stop-opacity="0.7"/>
<stop offset="0.19" stop-color="#373435"/>
<stop offset="0.71" stop-color="#1F1D1E" stop-opacity="0.478947"/>
<stop offset="1" stop-color="#0D0D0D" stop-opacity="0.1"/>
</linearGradient>
</defs>
</svg>
